M48
; DRILL file {KiCad (6.0.4)} date Sun Apr  3 13:08:38 2022
; FORMAT={-:-/ absolute / inch / decimal}
; #@! TF.CreationDate,2022-04-03T13:08:38+08:00
; #@! TF.GenerationSoftware,Kicad,Pcbnew,(6.0.4)
; #@! TF.FileFunction,Plated,1,2,PTH
FMAT,2
INCH
; #@! TA.AperFunction,Plated,PTH,ViaDrill
T1C0.0157
; #@! TA.AperFunction,Plated,PTH,ComponentDrill
T2C0.0394
; #@! TA.AperFunction,Plated,PTH,ComponentDrill
T3C0.0400
; #@! TA.AperFunction,Plated,PTH,ComponentDrill
T4C0.0598
; #@! TA.AperFunction,Plated,PTH,ViaDrill
T5C0.1181
%
G90
G05
T1
X9.218Y-2.117
X9.234Y-3.238
X9.241Y-3.798
X9.261Y-1.557
X9.35Y-2.677
X10.198Y-1.507
X10.198Y-2.142
X10.198Y-2.836
X10.198Y-3.494
X10.198Y-4.141
T2
X6.882Y-1.257
X6.882Y-1.357
X6.882Y-1.457
X6.882Y-1.557
X6.882Y-1.817
X6.882Y-1.917
X6.882Y-2.017
X6.882Y-2.117
X6.882Y-2.377
X6.882Y-2.477
X6.882Y-2.577
X6.882Y-2.677
X6.882Y-2.937
X6.882Y-3.037
X6.882Y-3.137
X6.882Y-3.237
X6.882Y-3.497
X6.882Y-3.597
X6.882Y-3.697
X6.882Y-3.797
X7.122Y-1.257
X7.122Y-1.357
X7.122Y-1.457
X7.122Y-1.557
X7.122Y-1.817
X7.122Y-1.917
X7.122Y-2.017
X7.122Y-2.117
X7.122Y-2.377
X7.122Y-2.477
X7.122Y-2.577
X7.122Y-2.677
X7.122Y-2.937
X7.122Y-3.037
X7.122Y-3.137
X7.122Y-3.237
X7.122Y-3.497
X7.122Y-3.597
X7.122Y-3.697
X7.122Y-3.797
X7.362Y-1.257
X7.362Y-1.357
X7.362Y-1.457
X7.362Y-1.557
X7.362Y-1.817
X7.362Y-1.917
X7.362Y-2.017
X7.362Y-2.117
X7.362Y-2.377
X7.362Y-2.477
X7.362Y-2.577
X7.362Y-2.677
X7.362Y-2.937
X7.362Y-3.037
X7.362Y-3.137
X7.362Y-3.237
X7.362Y-3.497
X7.362Y-3.597
X7.362Y-3.697
X7.362Y-3.797
X7.602Y-1.257
X7.602Y-1.357
X7.602Y-1.457
X7.602Y-1.557
X7.602Y-1.817
X7.602Y-1.917
X7.602Y-2.017
X7.602Y-2.117
X7.602Y-2.377
X7.602Y-2.477
X7.602Y-2.577
X7.602Y-2.677
X7.602Y-2.937
X7.602Y-3.037
X7.602Y-3.137
X7.602Y-3.237
X7.602Y-3.497
X7.602Y-3.597
X7.602Y-3.697
X7.602Y-3.797
X7.842Y-1.257
X7.842Y-1.357
X7.842Y-1.457
X7.842Y-1.557
X7.842Y-1.817
X7.842Y-1.917
X7.842Y-2.017
X7.842Y-2.117
X7.842Y-2.377
X7.842Y-2.477
X7.842Y-2.577
X7.842Y-2.677
X7.842Y-2.937
X7.842Y-3.037
X7.842Y-3.137
X7.842Y-3.237
X7.842Y-3.497
X7.842Y-3.597
X7.842Y-3.697
X7.842Y-3.797
X8.082Y-1.257
X8.082Y-1.357
X8.082Y-1.457
X8.082Y-1.557
X8.082Y-1.817
X8.082Y-1.917
X8.082Y-2.017
X8.082Y-2.117
X8.082Y-2.377
X8.082Y-2.477
X8.082Y-2.577
X8.082Y-2.677
X8.082Y-2.937
X8.082Y-3.037
X8.082Y-3.137
X8.082Y-3.237
X8.082Y-3.497
X8.082Y-3.597
X8.082Y-3.697
X8.082Y-3.797
X8.322Y-1.257
X8.322Y-1.357
X8.322Y-1.457
X8.322Y-1.557
X8.322Y-1.817
X8.322Y-1.917
X8.322Y-2.017
X8.322Y-2.117
X8.322Y-2.377
X8.322Y-2.477
X8.322Y-2.577
X8.322Y-2.677
X8.322Y-2.937
X8.322Y-3.037
X8.322Y-3.137
X8.322Y-3.237
X8.322Y-3.497
X8.322Y-3.597
X8.322Y-3.697
X8.322Y-3.797
X8.562Y-1.257
X8.562Y-1.357
X8.562Y-1.457
X8.562Y-1.557
X8.562Y-1.817
X8.562Y-1.917
X8.562Y-2.017
X8.562Y-2.117
X8.562Y-2.377
X8.562Y-2.477
X8.562Y-2.577
X8.562Y-2.677
X8.562Y-2.937
X8.562Y-3.037
X8.562Y-3.137
X8.562Y-3.237
X8.562Y-3.497
X8.562Y-3.597
X8.562Y-3.697
X8.562Y-3.797
X8.802Y-1.257
X8.802Y-1.357
X8.802Y-1.457
X8.802Y-1.557
X8.802Y-1.817
X8.802Y-1.917
X8.802Y-2.017
X8.802Y-2.117
X8.802Y-2.377
X8.802Y-2.477
X8.802Y-2.577
X8.802Y-2.677
X8.802Y-2.937
X8.802Y-3.037
X8.802Y-3.137
X8.802Y-3.237
X8.802Y-3.497
X8.802Y-3.597
X8.802Y-3.697
X8.802Y-3.797
X9.042Y-1.257
X9.042Y-1.357
X9.042Y-1.457
X9.042Y-1.557
X9.042Y-1.817
X9.042Y-1.917
X9.042Y-2.017
X9.042Y-2.117
X9.042Y-2.377
X9.042Y-2.477
X9.042Y-2.577
X9.042Y-2.677
X9.042Y-2.937
X9.042Y-3.037
X9.042Y-3.137
X9.042Y-3.237
X9.042Y-3.497
X9.042Y-3.597
X9.042Y-3.697
X9.042Y-3.797
T3
X9.829Y-1.224
X9.829Y-1.324
X9.829Y-1.424
X9.829Y-1.524
X9.829Y-1.8842
X9.829Y-1.9842
X9.829Y-2.0842
X9.829Y-2.1843
X9.829Y-2.5445
X9.829Y-2.6445
X9.829Y-2.7445
X9.829Y-2.8445
X9.829Y-3.2047
X9.829Y-3.3047
X9.829Y-3.4047
X9.829Y-3.5048
X9.829Y-3.865
X9.829Y-3.965
X9.829Y-4.065
X9.829Y-4.165
X9.929Y-1.224
X9.929Y-1.324
X9.929Y-1.424
X9.929Y-1.524
X9.929Y-1.8842
X9.929Y-1.9842
X9.929Y-2.0842
X9.929Y-2.1843
X9.929Y-2.5445
X9.929Y-2.6445
X9.929Y-2.7445
X9.929Y-2.8445
X9.929Y-3.2047
X9.929Y-3.3047
X9.929Y-3.4047
X9.929Y-3.5048
X9.929Y-3.865
X9.929Y-3.965
X9.929Y-4.065
X9.929Y-4.165
T4
X7.122Y-0.969
X7.122Y-4.417
X7.322Y-0.969
X7.322Y-4.417
T5
X6.72Y-0.98
X6.72Y-4.42
X10.26Y-0.98
X10.26Y-4.42
T0
M30
