%TF.GenerationSoftware,KiCad,Pcbnew,(6.0.4)*%
%TF.CreationDate,2022-04-03T13:08:36+08:00*%
%TF.ProjectId,Main_Board_Master,4d61696e-5f42-46f6-9172-645f4d617374,rev?*%
%TF.SameCoordinates,Original*%
%TF.FileFunction,Legend,Top*%
%TF.FilePolarity,Positive*%
%FSLAX46Y46*%
G04 Gerber Fmt 4.6, Leading zero omitted, Abs format (unit mm)*
G04 Created by KiCad (PCBNEW (6.0.4)) date 2022-04-03 13:08:36*
%MOMM*%
%LPD*%
G01*
G04 APERTURE LIST*
%ADD10C,0.120000*%
%ADD11C,0.150000*%
%ADD12C,0.125000*%
%ADD13C,0.250000*%
%ADD14C,0.100000*%
%ADD15C,0.152400*%
%ADD16C,0.254000*%
%ADD17R,1.727200X1.727200*%
%ADD18O,1.727200X1.727200*%
G04 APERTURE END LIST*
D10*
X247853200Y-26390600D02*
X247853200Y-22809200D01*
X247853200Y-22809200D02*
X254762000Y-22809200D01*
X251282200Y-22809200D02*
X251282200Y-26390600D01*
X254762000Y-26390600D02*
X247853200Y-26390600D01*
X247853200Y-24587200D02*
X254762000Y-24587200D01*
X254762000Y-22809200D02*
X254762000Y-26390600D01*
D11*
X232488895Y-87821800D02*
X232393657Y-87726561D01*
X232250800Y-87726561D01*
X232107942Y-87821800D01*
X232012704Y-88012276D01*
X231965085Y-88202752D01*
X231917466Y-88583704D01*
X231917466Y-88869419D01*
X231965085Y-89250371D01*
X232012704Y-89440847D01*
X232107942Y-89631323D01*
X232250800Y-89726561D01*
X232346038Y-89726561D01*
X232488895Y-89631323D01*
X232536514Y-89536085D01*
X232536514Y-88869419D01*
X232346038Y-88869419D01*
X232965085Y-89726561D02*
X232965085Y-87726561D01*
X233536514Y-89726561D01*
X233536514Y-87726561D01*
X234012704Y-89726561D02*
X234012704Y-87726561D01*
X234250800Y-87726561D01*
X234393657Y-87821800D01*
X234488895Y-88012276D01*
X234536514Y-88202752D01*
X234584133Y-88583704D01*
X234584133Y-88869419D01*
X234536514Y-89250371D01*
X234488895Y-89440847D01*
X234393657Y-89631323D01*
X234250800Y-89726561D01*
X234012704Y-89726561D01*
X232036514Y-94711323D02*
X232179371Y-94806561D01*
X232417466Y-94806561D01*
X232512704Y-94711323D01*
X232560323Y-94616085D01*
X232607942Y-94425609D01*
X232607942Y-94235133D01*
X232560323Y-94044657D01*
X232512704Y-93949419D01*
X232417466Y-93854180D01*
X232226990Y-93758942D01*
X232131752Y-93663704D01*
X232084133Y-93568466D01*
X232036514Y-93377990D01*
X232036514Y-93187514D01*
X232084133Y-92997038D01*
X232131752Y-92901800D01*
X232226990Y-92806561D01*
X232465085Y-92806561D01*
X232607942Y-92901800D01*
X233036514Y-94806561D02*
X233036514Y-92806561D01*
X233274609Y-92806561D01*
X233417466Y-92901800D01*
X233512704Y-93092276D01*
X233560323Y-93282752D01*
X233607942Y-93663704D01*
X233607942Y-93949419D01*
X233560323Y-94330371D01*
X233512704Y-94520847D01*
X233417466Y-94711323D01*
X233274609Y-94806561D01*
X233036514Y-94806561D01*
X233988895Y-94235133D02*
X234465085Y-94235133D01*
X233893657Y-94806561D02*
X234226990Y-92806561D01*
X234560323Y-94806561D01*
X232060323Y-97251323D02*
X232203180Y-97346561D01*
X232441276Y-97346561D01*
X232536514Y-97251323D01*
X232584133Y-97156085D01*
X232631752Y-96965609D01*
X232631752Y-96775133D01*
X232584133Y-96584657D01*
X232536514Y-96489419D01*
X232441276Y-96394180D01*
X232250800Y-96298942D01*
X232155561Y-96203704D01*
X232107942Y-96108466D01*
X232060323Y-95917990D01*
X232060323Y-95727514D01*
X232107942Y-95537038D01*
X232155561Y-95441800D01*
X232250800Y-95346561D01*
X232488895Y-95346561D01*
X232631752Y-95441800D01*
X233631752Y-97156085D02*
X233584133Y-97251323D01*
X233441276Y-97346561D01*
X233346038Y-97346561D01*
X233203180Y-97251323D01*
X233107942Y-97060847D01*
X233060323Y-96870371D01*
X233012704Y-96489419D01*
X233012704Y-96203704D01*
X233060323Y-95822752D01*
X233107942Y-95632276D01*
X233203180Y-95441800D01*
X233346038Y-95346561D01*
X233441276Y-95346561D01*
X233584133Y-95441800D01*
X233631752Y-95537038D01*
X234536514Y-97346561D02*
X234060323Y-97346561D01*
X234060323Y-95346561D01*
X231917466Y-90266561D02*
X232250800Y-92266561D01*
X232584133Y-90266561D01*
X233488895Y-92076085D02*
X233441276Y-92171323D01*
X233298419Y-92266561D01*
X233203180Y-92266561D01*
X233060323Y-92171323D01*
X232965085Y-91980847D01*
X232917466Y-91790371D01*
X232869847Y-91409419D01*
X232869847Y-91123704D01*
X232917466Y-90742752D01*
X232965085Y-90552276D01*
X233060323Y-90361800D01*
X233203180Y-90266561D01*
X233298419Y-90266561D01*
X233441276Y-90361800D01*
X233488895Y-90457038D01*
X234488895Y-92076085D02*
X234441276Y-92171323D01*
X234298419Y-92266561D01*
X234203180Y-92266561D01*
X234060323Y-92171323D01*
X233965085Y-91980847D01*
X233917466Y-91790371D01*
X233869847Y-91409419D01*
X233869847Y-91123704D01*
X233917466Y-90742752D01*
X233965085Y-90552276D01*
X234060323Y-90361800D01*
X234203180Y-90266561D01*
X234298419Y-90266561D01*
X234441276Y-90361800D01*
X234488895Y-90457038D01*
D12*
X252157028Y-25277671D02*
X252204647Y-25301480D01*
X252157028Y-25325290D01*
X252109409Y-25301480D01*
X252157028Y-25277671D01*
X252157028Y-25325290D01*
X253157028Y-25325290D02*
X252585600Y-25325290D01*
X252871314Y-25325290D02*
X252871314Y-24825290D01*
X252776076Y-24896719D01*
X252680838Y-24944338D01*
X252585600Y-24968147D01*
X254014171Y-24991957D02*
X254014171Y-25325290D01*
X253585600Y-24991957D02*
X253585600Y-25253861D01*
X253633219Y-25301480D01*
X253728457Y-25325290D01*
X253871314Y-25325290D01*
X253966552Y-25301480D01*
X254014171Y-25277671D01*
X252418933Y-26130290D02*
X251847504Y-26130290D01*
X252133219Y-26130290D02*
X252133219Y-25630290D01*
X252037980Y-25701719D01*
X251942742Y-25749338D01*
X251847504Y-25773147D01*
X253037980Y-25630290D02*
X253133219Y-25630290D01*
X253228457Y-25654100D01*
X253276076Y-25677909D01*
X253323695Y-25725528D01*
X253371314Y-25820766D01*
X253371314Y-25939814D01*
X253323695Y-26035052D01*
X253276076Y-26082671D01*
X253228457Y-26106480D01*
X253133219Y-26130290D01*
X253037980Y-26130290D01*
X252942742Y-26106480D01*
X252895123Y-26082671D01*
X252847504Y-26035052D01*
X252799885Y-25939814D01*
X252799885Y-25820766D01*
X252847504Y-25725528D01*
X252895123Y-25677909D01*
X252942742Y-25654100D01*
X253037980Y-25630290D01*
X254228457Y-25796957D02*
X254228457Y-26130290D01*
X253990361Y-25606480D02*
X253752266Y-25963623D01*
X254371314Y-25963623D01*
D11*
X232460895Y-30927800D02*
X232365657Y-30832561D01*
X232222800Y-30832561D01*
X232079942Y-30927800D01*
X231984704Y-31118276D01*
X231937085Y-31308752D01*
X231889466Y-31689704D01*
X231889466Y-31975419D01*
X231937085Y-32356371D01*
X231984704Y-32546847D01*
X232079942Y-32737323D01*
X232222800Y-32832561D01*
X232318038Y-32832561D01*
X232460895Y-32737323D01*
X232508514Y-32642085D01*
X232508514Y-31975419D01*
X232318038Y-31975419D01*
X232937085Y-32832561D02*
X232937085Y-30832561D01*
X233508514Y-32832561D01*
X233508514Y-30832561D01*
X233984704Y-32832561D02*
X233984704Y-30832561D01*
X234222800Y-30832561D01*
X234365657Y-30927800D01*
X234460895Y-31118276D01*
X234508514Y-31308752D01*
X234556133Y-31689704D01*
X234556133Y-31975419D01*
X234508514Y-32356371D01*
X234460895Y-32546847D01*
X234365657Y-32737323D01*
X234222800Y-32832561D01*
X233984704Y-32832561D01*
X175209295Y-111344200D02*
X175114057Y-111248961D01*
X174971200Y-111248961D01*
X174828342Y-111344200D01*
X174733104Y-111534676D01*
X174685485Y-111725152D01*
X174637866Y-112106104D01*
X174637866Y-112391819D01*
X174685485Y-112772771D01*
X174733104Y-112963247D01*
X174828342Y-113153723D01*
X174971200Y-113248961D01*
X175066438Y-113248961D01*
X175209295Y-113153723D01*
X175256914Y-113058485D01*
X175256914Y-112391819D01*
X175066438Y-112391819D01*
X175685485Y-113248961D02*
X175685485Y-111248961D01*
X176256914Y-113248961D01*
X176256914Y-111248961D01*
X176733104Y-113248961D02*
X176733104Y-111248961D01*
X176971200Y-111248961D01*
X177114057Y-111344200D01*
X177209295Y-111534676D01*
X177256914Y-111725152D01*
X177304533Y-112106104D01*
X177304533Y-112391819D01*
X177256914Y-112772771D01*
X177209295Y-112963247D01*
X177114057Y-113153723D01*
X176971200Y-113248961D01*
X176733104Y-113248961D01*
X232488895Y-45149800D02*
X232393657Y-45054561D01*
X232250800Y-45054561D01*
X232107942Y-45149800D01*
X232012704Y-45340276D01*
X231965085Y-45530752D01*
X231917466Y-45911704D01*
X231917466Y-46197419D01*
X231965085Y-46578371D01*
X232012704Y-46768847D01*
X232107942Y-46959323D01*
X232250800Y-47054561D01*
X232346038Y-47054561D01*
X232488895Y-46959323D01*
X232536514Y-46864085D01*
X232536514Y-46197419D01*
X232346038Y-46197419D01*
X232965085Y-47054561D02*
X232965085Y-45054561D01*
X233536514Y-47054561D01*
X233536514Y-45054561D01*
X234012704Y-47054561D02*
X234012704Y-45054561D01*
X234250800Y-45054561D01*
X234393657Y-45149800D01*
X234488895Y-45340276D01*
X234536514Y-45530752D01*
X234584133Y-45911704D01*
X234584133Y-46197419D01*
X234536514Y-46578371D01*
X234488895Y-46768847D01*
X234393657Y-46959323D01*
X234250800Y-47054561D01*
X234012704Y-47054561D01*
X231917466Y-61818561D02*
X232250800Y-63818561D01*
X232584133Y-61818561D01*
X233488895Y-63628085D02*
X233441276Y-63723323D01*
X233298419Y-63818561D01*
X233203180Y-63818561D01*
X233060323Y-63723323D01*
X232965085Y-63532847D01*
X232917466Y-63342371D01*
X232869847Y-62961419D01*
X232869847Y-62675704D01*
X232917466Y-62294752D01*
X232965085Y-62104276D01*
X233060323Y-61913800D01*
X233203180Y-61818561D01*
X233298419Y-61818561D01*
X233441276Y-61913800D01*
X233488895Y-62009038D01*
X234488895Y-63628085D02*
X234441276Y-63723323D01*
X234298419Y-63818561D01*
X234203180Y-63818561D01*
X234060323Y-63723323D01*
X233965085Y-63532847D01*
X233917466Y-63342371D01*
X233869847Y-62961419D01*
X233869847Y-62675704D01*
X233917466Y-62294752D01*
X233965085Y-62104276D01*
X234060323Y-61913800D01*
X234203180Y-61818561D01*
X234298419Y-61818561D01*
X234441276Y-61913800D01*
X234488895Y-62009038D01*
X232008514Y-37817323D02*
X232151371Y-37912561D01*
X232389466Y-37912561D01*
X232484704Y-37817323D01*
X232532323Y-37722085D01*
X232579942Y-37531609D01*
X232579942Y-37341133D01*
X232532323Y-37150657D01*
X232484704Y-37055419D01*
X232389466Y-36960180D01*
X232198990Y-36864942D01*
X232103752Y-36769704D01*
X232056133Y-36674466D01*
X232008514Y-36483990D01*
X232008514Y-36293514D01*
X232056133Y-36103038D01*
X232103752Y-36007800D01*
X232198990Y-35912561D01*
X232437085Y-35912561D01*
X232579942Y-36007800D01*
X233008514Y-37912561D02*
X233008514Y-35912561D01*
X233246609Y-35912561D01*
X233389466Y-36007800D01*
X233484704Y-36198276D01*
X233532323Y-36388752D01*
X233579942Y-36769704D01*
X233579942Y-37055419D01*
X233532323Y-37436371D01*
X233484704Y-37626847D01*
X233389466Y-37817323D01*
X233246609Y-37912561D01*
X233008514Y-37912561D01*
X233960895Y-37341133D02*
X234437085Y-37341133D01*
X233865657Y-37912561D02*
X234198990Y-35912561D01*
X234532323Y-37912561D01*
X191160304Y-25710100D02*
X191255542Y-25805338D01*
X191398400Y-25805338D01*
X191541257Y-25710100D01*
X191636495Y-25519623D01*
X191684114Y-25329147D01*
X191731733Y-24948195D01*
X191731733Y-24662480D01*
X191684114Y-24281528D01*
X191636495Y-24091052D01*
X191541257Y-23900576D01*
X191398400Y-23805338D01*
X191303161Y-23805338D01*
X191160304Y-23900576D01*
X191112685Y-23995814D01*
X191112685Y-24662480D01*
X191303161Y-24662480D01*
X190684114Y-23805338D02*
X190684114Y-25805338D01*
X190112685Y-23805338D01*
X190112685Y-25805338D01*
X189636495Y-23805338D02*
X189636495Y-25805338D01*
X189398400Y-25805338D01*
X189255542Y-25710100D01*
X189160304Y-25519623D01*
X189112685Y-25329147D01*
X189065066Y-24948195D01*
X189065066Y-24662480D01*
X189112685Y-24281528D01*
X189160304Y-24091052D01*
X189255542Y-23900576D01*
X189398400Y-23805338D01*
X189636495Y-23805338D01*
X247790161Y-114903304D02*
X247790161Y-115474733D01*
X247752066Y-115589019D01*
X247675876Y-115665209D01*
X247561590Y-115703304D01*
X247485400Y-115703304D01*
X248552066Y-115703304D02*
X248171114Y-115703304D01*
X248171114Y-114903304D01*
X249275876Y-115627114D02*
X249237780Y-115665209D01*
X249123495Y-115703304D01*
X249047304Y-115703304D01*
X248933019Y-115665209D01*
X248856828Y-115589019D01*
X248818733Y-115512828D01*
X248780638Y-115360447D01*
X248780638Y-115246161D01*
X248818733Y-115093780D01*
X248856828Y-115017590D01*
X248933019Y-114941400D01*
X249047304Y-114903304D01*
X249123495Y-114903304D01*
X249237780Y-114941400D01*
X249275876Y-114979495D01*
X249847304Y-114903304D02*
X249847304Y-115474733D01*
X249809209Y-115589019D01*
X249733019Y-115665209D01*
X249618733Y-115703304D01*
X249542542Y-115703304D01*
X250609209Y-115703304D02*
X250228257Y-115703304D01*
X250228257Y-114903304D01*
X251333019Y-115627114D02*
X251294923Y-115665209D01*
X251180638Y-115703304D01*
X251104447Y-115703304D01*
X250990161Y-115665209D01*
X250913971Y-115589019D01*
X250875876Y-115512828D01*
X250837780Y-115360447D01*
X250837780Y-115246161D01*
X250875876Y-115093780D01*
X250913971Y-115017590D01*
X250990161Y-114941400D01*
X251104447Y-114903304D01*
X251180638Y-114903304D01*
X251294923Y-114941400D01*
X251333019Y-114979495D01*
X251904447Y-114903304D02*
X251904447Y-115474733D01*
X251866352Y-115589019D01*
X251790161Y-115665209D01*
X251675876Y-115703304D01*
X251599685Y-115703304D01*
X252666352Y-115703304D02*
X252285400Y-115703304D01*
X252285400Y-114903304D01*
X253390161Y-115627114D02*
X253352066Y-115665209D01*
X253237780Y-115703304D01*
X253161590Y-115703304D01*
X253047304Y-115665209D01*
X252971114Y-115589019D01*
X252933019Y-115512828D01*
X252894923Y-115360447D01*
X252894923Y-115246161D01*
X252933019Y-115093780D01*
X252971114Y-115017590D01*
X253047304Y-114941400D01*
X253161590Y-114903304D01*
X253237780Y-114903304D01*
X253352066Y-114941400D01*
X253390161Y-114979495D01*
X253961590Y-114903304D02*
X253961590Y-115474733D01*
X253923495Y-115589019D01*
X253847304Y-115665209D01*
X253733019Y-115703304D01*
X253656828Y-115703304D01*
X254723495Y-115703304D02*
X254342542Y-115703304D01*
X254342542Y-114903304D01*
X255447304Y-115627114D02*
X255409209Y-115665209D01*
X255294923Y-115703304D01*
X255218733Y-115703304D01*
X255104447Y-115665209D01*
X255028257Y-115589019D01*
X254990161Y-115512828D01*
X254952066Y-115360447D01*
X254952066Y-115246161D01*
X254990161Y-115093780D01*
X255028257Y-115017590D01*
X255104447Y-114941400D01*
X255218733Y-114903304D01*
X255294923Y-114903304D01*
X255409209Y-114941400D01*
X255447304Y-114979495D01*
D12*
X248702628Y-25277671D02*
X248750247Y-25301480D01*
X248702628Y-25325290D01*
X248655009Y-25301480D01*
X248702628Y-25277671D01*
X248702628Y-25325290D01*
X249702628Y-25325290D02*
X249131200Y-25325290D01*
X249416914Y-25325290D02*
X249416914Y-24825290D01*
X249321676Y-24896719D01*
X249226438Y-24944338D01*
X249131200Y-24968147D01*
X250559771Y-24991957D02*
X250559771Y-25325290D01*
X250131200Y-24991957D02*
X250131200Y-25253861D01*
X250178819Y-25301480D01*
X250274057Y-25325290D01*
X250416914Y-25325290D01*
X250512152Y-25301480D01*
X250559771Y-25277671D01*
X248964533Y-26130290D02*
X248393104Y-26130290D01*
X248678819Y-26130290D02*
X248678819Y-25630290D01*
X248583580Y-25701719D01*
X248488342Y-25749338D01*
X248393104Y-25773147D01*
X249583580Y-25630290D02*
X249678819Y-25630290D01*
X249774057Y-25654100D01*
X249821676Y-25677909D01*
X249869295Y-25725528D01*
X249916914Y-25820766D01*
X249916914Y-25939814D01*
X249869295Y-26035052D01*
X249821676Y-26082671D01*
X249774057Y-26106480D01*
X249678819Y-26130290D01*
X249583580Y-26130290D01*
X249488342Y-26106480D01*
X249440723Y-26082671D01*
X249393104Y-26035052D01*
X249345485Y-25939814D01*
X249345485Y-25820766D01*
X249393104Y-25725528D01*
X249440723Y-25677909D01*
X249488342Y-25654100D01*
X249583580Y-25630290D01*
X250774057Y-25796957D02*
X250774057Y-26130290D01*
X250535961Y-25606480D02*
X250297866Y-25963623D01*
X250916914Y-25963623D01*
D11*
X232036514Y-80487323D02*
X232179371Y-80582561D01*
X232417466Y-80582561D01*
X232512704Y-80487323D01*
X232560323Y-80392085D01*
X232607942Y-80201609D01*
X232607942Y-80011133D01*
X232560323Y-79820657D01*
X232512704Y-79725419D01*
X232417466Y-79630180D01*
X232226990Y-79534942D01*
X232131752Y-79439704D01*
X232084133Y-79344466D01*
X232036514Y-79153990D01*
X232036514Y-78963514D01*
X232084133Y-78773038D01*
X232131752Y-78677800D01*
X232226990Y-78582561D01*
X232465085Y-78582561D01*
X232607942Y-78677800D01*
X233036514Y-80582561D02*
X233036514Y-78582561D01*
X233274609Y-78582561D01*
X233417466Y-78677800D01*
X233512704Y-78868276D01*
X233560323Y-79058752D01*
X233607942Y-79439704D01*
X233607942Y-79725419D01*
X233560323Y-80106371D01*
X233512704Y-80296847D01*
X233417466Y-80487323D01*
X233274609Y-80582561D01*
X233036514Y-80582561D01*
X233988895Y-80011133D02*
X234465085Y-80011133D01*
X233893657Y-80582561D02*
X234226990Y-78582561D01*
X234560323Y-80582561D01*
X232036514Y-66263323D02*
X232179371Y-66358561D01*
X232417466Y-66358561D01*
X232512704Y-66263323D01*
X232560323Y-66168085D01*
X232607942Y-65977609D01*
X232607942Y-65787133D01*
X232560323Y-65596657D01*
X232512704Y-65501419D01*
X232417466Y-65406180D01*
X232226990Y-65310942D01*
X232131752Y-65215704D01*
X232084133Y-65120466D01*
X232036514Y-64929990D01*
X232036514Y-64739514D01*
X232084133Y-64549038D01*
X232131752Y-64453800D01*
X232226990Y-64358561D01*
X232465085Y-64358561D01*
X232607942Y-64453800D01*
X233036514Y-66358561D02*
X233036514Y-64358561D01*
X233274609Y-64358561D01*
X233417466Y-64453800D01*
X233512704Y-64644276D01*
X233560323Y-64834752D01*
X233607942Y-65215704D01*
X233607942Y-65501419D01*
X233560323Y-65882371D01*
X233512704Y-66072847D01*
X233417466Y-66263323D01*
X233274609Y-66358561D01*
X233036514Y-66358561D01*
X233988895Y-65787133D02*
X234465085Y-65787133D01*
X233893657Y-66358561D02*
X234226990Y-64358561D01*
X234560323Y-66358561D01*
X232060323Y-54579323D02*
X232203180Y-54674561D01*
X232441276Y-54674561D01*
X232536514Y-54579323D01*
X232584133Y-54484085D01*
X232631752Y-54293609D01*
X232631752Y-54103133D01*
X232584133Y-53912657D01*
X232536514Y-53817419D01*
X232441276Y-53722180D01*
X232250800Y-53626942D01*
X232155561Y-53531704D01*
X232107942Y-53436466D01*
X232060323Y-53245990D01*
X232060323Y-53055514D01*
X232107942Y-52865038D01*
X232155561Y-52769800D01*
X232250800Y-52674561D01*
X232488895Y-52674561D01*
X232631752Y-52769800D01*
X233631752Y-54484085D02*
X233584133Y-54579323D01*
X233441276Y-54674561D01*
X233346038Y-54674561D01*
X233203180Y-54579323D01*
X233107942Y-54388847D01*
X233060323Y-54198371D01*
X233012704Y-53817419D01*
X233012704Y-53531704D01*
X233060323Y-53150752D01*
X233107942Y-52960276D01*
X233203180Y-52769800D01*
X233346038Y-52674561D01*
X233441276Y-52674561D01*
X233584133Y-52769800D01*
X233631752Y-52865038D01*
X234536514Y-54674561D02*
X234060323Y-54674561D01*
X234060323Y-52674561D01*
D13*
X213126895Y-106778561D02*
X212650704Y-106778561D01*
X212603085Y-107730942D01*
X212650704Y-107635704D01*
X212745942Y-107540466D01*
X212984038Y-107540466D01*
X213079276Y-107635704D01*
X213126895Y-107730942D01*
X213174514Y-107921419D01*
X213174514Y-108397609D01*
X213126895Y-108588085D01*
X213079276Y-108683323D01*
X212984038Y-108778561D01*
X212745942Y-108778561D01*
X212650704Y-108683323D01*
X212603085Y-108588085D01*
X213793561Y-106778561D02*
X213888800Y-106778561D01*
X213984038Y-106873800D01*
X214031657Y-106969038D01*
X214079276Y-107159514D01*
X214126895Y-107540466D01*
X214126895Y-108016657D01*
X214079276Y-108397609D01*
X214031657Y-108588085D01*
X213984038Y-108683323D01*
X213888800Y-108778561D01*
X213793561Y-108778561D01*
X213698323Y-108683323D01*
X213650704Y-108588085D01*
X213603085Y-108397609D01*
X213555466Y-108016657D01*
X213555466Y-107540466D01*
X213603085Y-107159514D01*
X213650704Y-106969038D01*
X213698323Y-106873800D01*
X213793561Y-106778561D01*
X215317371Y-108778561D02*
X215317371Y-106778561D01*
X215317371Y-107540466D02*
X215412609Y-107445228D01*
X215603085Y-107445228D01*
X215698323Y-107540466D01*
X215745942Y-107635704D01*
X215793561Y-107826180D01*
X215793561Y-108397609D01*
X215745942Y-108588085D01*
X215698323Y-108683323D01*
X215603085Y-108778561D01*
X215412609Y-108778561D01*
X215317371Y-108683323D01*
X216364990Y-108778561D02*
X216269752Y-108683323D01*
X216222133Y-108492847D01*
X216222133Y-106778561D01*
X217174514Y-108778561D02*
X217174514Y-107730942D01*
X217126895Y-107540466D01*
X217031657Y-107445228D01*
X216841180Y-107445228D01*
X216745942Y-107540466D01*
X217174514Y-108683323D02*
X217079276Y-108778561D01*
X216841180Y-108778561D01*
X216745942Y-108683323D01*
X216698323Y-108492847D01*
X216698323Y-108302371D01*
X216745942Y-108111895D01*
X216841180Y-108016657D01*
X217079276Y-108016657D01*
X217174514Y-107921419D01*
X218079276Y-108778561D02*
X218079276Y-106778561D01*
X218079276Y-108683323D02*
X217984038Y-108778561D01*
X217793561Y-108778561D01*
X217698323Y-108683323D01*
X217650704Y-108588085D01*
X217603085Y-108397609D01*
X217603085Y-107826180D01*
X217650704Y-107635704D01*
X217698323Y-107540466D01*
X217793561Y-107445228D01*
X217984038Y-107445228D01*
X218079276Y-107540466D01*
X218936419Y-108683323D02*
X218841180Y-108778561D01*
X218650704Y-108778561D01*
X218555466Y-108683323D01*
X218507847Y-108492847D01*
X218507847Y-107730942D01*
X218555466Y-107540466D01*
X218650704Y-107445228D01*
X218841180Y-107445228D01*
X218936419Y-107540466D01*
X218984038Y-107730942D01*
X218984038Y-107921419D01*
X218507847Y-108111895D01*
X220174514Y-108778561D02*
X220174514Y-107445228D01*
X220174514Y-107635704D02*
X220222133Y-107540466D01*
X220317371Y-107445228D01*
X220460228Y-107445228D01*
X220555466Y-107540466D01*
X220603085Y-107730942D01*
X220603085Y-108778561D01*
X220603085Y-107730942D02*
X220650704Y-107540466D01*
X220745942Y-107445228D01*
X220888800Y-107445228D01*
X220984038Y-107540466D01*
X221031657Y-107730942D01*
X221031657Y-108778561D01*
X221936419Y-107445228D02*
X221936419Y-108778561D01*
X221507847Y-107445228D02*
X221507847Y-108492847D01*
X221555466Y-108683323D01*
X221650704Y-108778561D01*
X221793561Y-108778561D01*
X221888800Y-108683323D01*
X221936419Y-108588085D01*
X222555466Y-108778561D02*
X222460228Y-108683323D01*
X222412609Y-108492847D01*
X222412609Y-106778561D01*
X222793561Y-107445228D02*
X223174514Y-107445228D01*
X222936419Y-106778561D02*
X222936419Y-108492847D01*
X222984038Y-108683323D01*
X223079276Y-108778561D01*
X223174514Y-108778561D01*
X223507847Y-108778561D02*
X223507847Y-107445228D01*
X223507847Y-106778561D02*
X223460228Y-106873800D01*
X223507847Y-106969038D01*
X223555466Y-106873800D01*
X223507847Y-106778561D01*
X223507847Y-106969038D01*
X223984038Y-108016657D02*
X224745942Y-108016657D01*
X225650704Y-108683323D02*
X225555466Y-108778561D01*
X225364990Y-108778561D01*
X225269752Y-108683323D01*
X225222133Y-108588085D01*
X225174514Y-108397609D01*
X225174514Y-107826180D01*
X225222133Y-107635704D01*
X225269752Y-107540466D01*
X225364990Y-107445228D01*
X225555466Y-107445228D01*
X225650704Y-107540466D01*
X226222133Y-108778561D02*
X226126895Y-108683323D01*
X226079276Y-108588085D01*
X226031657Y-108397609D01*
X226031657Y-107826180D01*
X226079276Y-107635704D01*
X226126895Y-107540466D01*
X226222133Y-107445228D01*
X226364990Y-107445228D01*
X226460228Y-107540466D01*
X226507847Y-107635704D01*
X226555466Y-107826180D01*
X226555466Y-108397609D01*
X226507847Y-108588085D01*
X226460228Y-108683323D01*
X226364990Y-108778561D01*
X226222133Y-108778561D01*
X226984038Y-108778561D02*
X226984038Y-107445228D01*
X226984038Y-107826180D02*
X227031657Y-107635704D01*
X227079276Y-107540466D01*
X227174514Y-107445228D01*
X227269752Y-107445228D01*
X227984038Y-108683323D02*
X227888800Y-108778561D01*
X227698323Y-108778561D01*
X227603085Y-108683323D01*
X227555466Y-108492847D01*
X227555466Y-107730942D01*
X227603085Y-107540466D01*
X227698323Y-107445228D01*
X227888800Y-107445228D01*
X227984038Y-107540466D01*
X228031657Y-107730942D01*
X228031657Y-107921419D01*
X227555466Y-108111895D01*
X229222133Y-108778561D02*
X229222133Y-107445228D01*
X229222133Y-107635704D02*
X229269752Y-107540466D01*
X229364990Y-107445228D01*
X229507847Y-107445228D01*
X229603085Y-107540466D01*
X229650704Y-107730942D01*
X229650704Y-108778561D01*
X229650704Y-107730942D02*
X229698323Y-107540466D01*
X229793561Y-107445228D01*
X229936419Y-107445228D01*
X230031657Y-107540466D01*
X230079276Y-107730942D01*
X230079276Y-108778561D01*
X230555466Y-108778561D02*
X230555466Y-107445228D01*
X230555466Y-106778561D02*
X230507847Y-106873800D01*
X230555466Y-106969038D01*
X230603085Y-106873800D01*
X230555466Y-106778561D01*
X230555466Y-106969038D01*
X231031657Y-107445228D02*
X231031657Y-108778561D01*
X231031657Y-107635704D02*
X231079276Y-107540466D01*
X231174514Y-107445228D01*
X231317371Y-107445228D01*
X231412609Y-107540466D01*
X231460228Y-107730942D01*
X231460228Y-108778561D01*
X231936419Y-108778561D02*
X231936419Y-107445228D01*
X231936419Y-106778561D02*
X231888800Y-106873800D01*
X231936419Y-106969038D01*
X231984038Y-106873800D01*
X231936419Y-106778561D01*
X231936419Y-106969038D01*
X232412609Y-107445228D02*
X232412609Y-108778561D01*
X232412609Y-107635704D02*
X232460228Y-107540466D01*
X232555466Y-107445228D01*
X232698323Y-107445228D01*
X232793561Y-107540466D01*
X232841180Y-107730942D01*
X232841180Y-108778561D01*
X233745942Y-107445228D02*
X233745942Y-109064276D01*
X233698323Y-109254752D01*
X233650704Y-109349990D01*
X233555466Y-109445228D01*
X233412609Y-109445228D01*
X233317371Y-109349990D01*
X233745942Y-108683323D02*
X233650704Y-108778561D01*
X233460228Y-108778561D01*
X233364990Y-108683323D01*
X233317371Y-108588085D01*
X233269752Y-108397609D01*
X233269752Y-107826180D01*
X233317371Y-107635704D01*
X233364990Y-107540466D01*
X233460228Y-107445228D01*
X233650704Y-107445228D01*
X233745942Y-107540466D01*
X234984038Y-108778561D02*
X234984038Y-107445228D01*
X234984038Y-107635704D02*
X235031657Y-107540466D01*
X235126895Y-107445228D01*
X235269752Y-107445228D01*
X235364990Y-107540466D01*
X235412609Y-107730942D01*
X235412609Y-108778561D01*
X235412609Y-107730942D02*
X235460228Y-107540466D01*
X235555466Y-107445228D01*
X235698323Y-107445228D01*
X235793561Y-107540466D01*
X235841180Y-107730942D01*
X235841180Y-108778561D01*
X236745942Y-108778561D02*
X236745942Y-107730942D01*
X236698323Y-107540466D01*
X236603085Y-107445228D01*
X236412609Y-107445228D01*
X236317371Y-107540466D01*
X236745942Y-108683323D02*
X236650704Y-108778561D01*
X236412609Y-108778561D01*
X236317371Y-108683323D01*
X236269752Y-108492847D01*
X236269752Y-108302371D01*
X236317371Y-108111895D01*
X236412609Y-108016657D01*
X236650704Y-108016657D01*
X236745942Y-107921419D01*
X237222133Y-108778561D02*
X237222133Y-107445228D01*
X237222133Y-106778561D02*
X237174514Y-106873800D01*
X237222133Y-106969038D01*
X237269752Y-106873800D01*
X237222133Y-106778561D01*
X237222133Y-106969038D01*
X237698323Y-107445228D02*
X237698323Y-108778561D01*
X237698323Y-107635704D02*
X237745942Y-107540466D01*
X237841180Y-107445228D01*
X237984038Y-107445228D01*
X238079276Y-107540466D01*
X238126895Y-107730942D01*
X238126895Y-108778561D01*
X239364990Y-108778561D02*
X239364990Y-106778561D01*
X239364990Y-107540466D02*
X239460228Y-107445228D01*
X239650704Y-107445228D01*
X239745942Y-107540466D01*
X239793561Y-107635704D01*
X239841180Y-107826180D01*
X239841180Y-108397609D01*
X239793561Y-108588085D01*
X239745942Y-108683323D01*
X239650704Y-108778561D01*
X239460228Y-108778561D01*
X239364990Y-108683323D01*
X240412609Y-108778561D02*
X240317371Y-108683323D01*
X240269752Y-108588085D01*
X240222133Y-108397609D01*
X240222133Y-107826180D01*
X240269752Y-107635704D01*
X240317371Y-107540466D01*
X240412609Y-107445228D01*
X240555466Y-107445228D01*
X240650704Y-107540466D01*
X240698323Y-107635704D01*
X240745942Y-107826180D01*
X240745942Y-108397609D01*
X240698323Y-108588085D01*
X240650704Y-108683323D01*
X240555466Y-108778561D01*
X240412609Y-108778561D01*
X241603085Y-108778561D02*
X241603085Y-107730942D01*
X241555466Y-107540466D01*
X241460228Y-107445228D01*
X241269752Y-107445228D01*
X241174514Y-107540466D01*
X241603085Y-108683323D02*
X241507847Y-108778561D01*
X241269752Y-108778561D01*
X241174514Y-108683323D01*
X241126895Y-108492847D01*
X241126895Y-108302371D01*
X241174514Y-108111895D01*
X241269752Y-108016657D01*
X241507847Y-108016657D01*
X241603085Y-107921419D01*
X242079276Y-108778561D02*
X242079276Y-107445228D01*
X242079276Y-107826180D02*
X242126895Y-107635704D01*
X242174514Y-107540466D01*
X242269752Y-107445228D01*
X242364990Y-107445228D01*
X243126895Y-108778561D02*
X243126895Y-106778561D01*
X243126895Y-108683323D02*
X243031657Y-108778561D01*
X242841180Y-108778561D01*
X242745942Y-108683323D01*
X242698323Y-108588085D01*
X242650704Y-108397609D01*
X242650704Y-107826180D01*
X242698323Y-107635704D01*
X242745942Y-107540466D01*
X242841180Y-107445228D01*
X243031657Y-107445228D01*
X243126895Y-107540466D01*
D11*
X232488895Y-59373800D02*
X232393657Y-59278561D01*
X232250800Y-59278561D01*
X232107942Y-59373800D01*
X232012704Y-59564276D01*
X231965085Y-59754752D01*
X231917466Y-60135704D01*
X231917466Y-60421419D01*
X231965085Y-60802371D01*
X232012704Y-60992847D01*
X232107942Y-61183323D01*
X232250800Y-61278561D01*
X232346038Y-61278561D01*
X232488895Y-61183323D01*
X232536514Y-61088085D01*
X232536514Y-60421419D01*
X232346038Y-60421419D01*
X232965085Y-61278561D02*
X232965085Y-59278561D01*
X233536514Y-61278561D01*
X233536514Y-59278561D01*
X234012704Y-61278561D02*
X234012704Y-59278561D01*
X234250800Y-59278561D01*
X234393657Y-59373800D01*
X234488895Y-59564276D01*
X234536514Y-59754752D01*
X234584133Y-60135704D01*
X234584133Y-60421419D01*
X234536514Y-60802371D01*
X234488895Y-60992847D01*
X234393657Y-61183323D01*
X234250800Y-61278561D01*
X234012704Y-61278561D01*
X189598466Y-111452161D02*
X189931800Y-113452161D01*
X190265133Y-111452161D01*
X191169895Y-113261685D02*
X191122276Y-113356923D01*
X190979419Y-113452161D01*
X190884180Y-113452161D01*
X190741323Y-113356923D01*
X190646085Y-113166447D01*
X190598466Y-112975971D01*
X190550847Y-112595019D01*
X190550847Y-112309304D01*
X190598466Y-111928352D01*
X190646085Y-111737876D01*
X190741323Y-111547400D01*
X190884180Y-111452161D01*
X190979419Y-111452161D01*
X191122276Y-111547400D01*
X191169895Y-111642638D01*
X192169895Y-113261685D02*
X192122276Y-113356923D01*
X191979419Y-113452161D01*
X191884180Y-113452161D01*
X191741323Y-113356923D01*
X191646085Y-113166447D01*
X191598466Y-112975971D01*
X191550847Y-112595019D01*
X191550847Y-112309304D01*
X191598466Y-111928352D01*
X191646085Y-111737876D01*
X191741323Y-111547400D01*
X191884180Y-111452161D01*
X191979419Y-111452161D01*
X192122276Y-111547400D01*
X192169895Y-111642638D01*
X231917466Y-47594561D02*
X232250800Y-49594561D01*
X232584133Y-47594561D01*
X233488895Y-49404085D02*
X233441276Y-49499323D01*
X233298419Y-49594561D01*
X233203180Y-49594561D01*
X233060323Y-49499323D01*
X232965085Y-49308847D01*
X232917466Y-49118371D01*
X232869847Y-48737419D01*
X232869847Y-48451704D01*
X232917466Y-48070752D01*
X232965085Y-47880276D01*
X233060323Y-47689800D01*
X233203180Y-47594561D01*
X233298419Y-47594561D01*
X233441276Y-47689800D01*
X233488895Y-47785038D01*
X234488895Y-49404085D02*
X234441276Y-49499323D01*
X234298419Y-49594561D01*
X234203180Y-49594561D01*
X234060323Y-49499323D01*
X233965085Y-49308847D01*
X233917466Y-49118371D01*
X233869847Y-48737419D01*
X233869847Y-48451704D01*
X233917466Y-48070752D01*
X233965085Y-47880276D01*
X234060323Y-47689800D01*
X234203180Y-47594561D01*
X234298419Y-47594561D01*
X234441276Y-47689800D01*
X234488895Y-47785038D01*
X232488895Y-73597800D02*
X232393657Y-73502561D01*
X232250800Y-73502561D01*
X232107942Y-73597800D01*
X232012704Y-73788276D01*
X231965085Y-73978752D01*
X231917466Y-74359704D01*
X231917466Y-74645419D01*
X231965085Y-75026371D01*
X232012704Y-75216847D01*
X232107942Y-75407323D01*
X232250800Y-75502561D01*
X232346038Y-75502561D01*
X232488895Y-75407323D01*
X232536514Y-75312085D01*
X232536514Y-74645419D01*
X232346038Y-74645419D01*
X232965085Y-75502561D02*
X232965085Y-73502561D01*
X233536514Y-75502561D01*
X233536514Y-73502561D01*
X234012704Y-75502561D02*
X234012704Y-73502561D01*
X234250800Y-73502561D01*
X234393657Y-73597800D01*
X234488895Y-73788276D01*
X234536514Y-73978752D01*
X234584133Y-74359704D01*
X234584133Y-74645419D01*
X234536514Y-75026371D01*
X234488895Y-75216847D01*
X234393657Y-75407323D01*
X234250800Y-75502561D01*
X234012704Y-75502561D01*
X231889466Y-33372561D02*
X232222800Y-35372561D01*
X232556133Y-33372561D01*
X233460895Y-35182085D02*
X233413276Y-35277323D01*
X233270419Y-35372561D01*
X233175180Y-35372561D01*
X233032323Y-35277323D01*
X232937085Y-35086847D01*
X232889466Y-34896371D01*
X232841847Y-34515419D01*
X232841847Y-34229704D01*
X232889466Y-33848752D01*
X232937085Y-33658276D01*
X233032323Y-33467800D01*
X233175180Y-33372561D01*
X233270419Y-33372561D01*
X233413276Y-33467800D01*
X233460895Y-33563038D01*
X234460895Y-35182085D02*
X234413276Y-35277323D01*
X234270419Y-35372561D01*
X234175180Y-35372561D01*
X234032323Y-35277323D01*
X233937085Y-35086847D01*
X233889466Y-34896371D01*
X233841847Y-34515419D01*
X233841847Y-34229704D01*
X233889466Y-33848752D01*
X233937085Y-33658276D01*
X234032323Y-33467800D01*
X234175180Y-33372561D01*
X234270419Y-33372561D01*
X234413276Y-33467800D01*
X234460895Y-33563038D01*
D13*
X212666514Y-112080561D02*
X212666514Y-110080561D01*
X212999847Y-111509133D01*
X213333180Y-110080561D01*
X213333180Y-112080561D01*
X214237942Y-112080561D02*
X214237942Y-111032942D01*
X214190323Y-110842466D01*
X214095085Y-110747228D01*
X213904609Y-110747228D01*
X213809371Y-110842466D01*
X214237942Y-111985323D02*
X214142704Y-112080561D01*
X213904609Y-112080561D01*
X213809371Y-111985323D01*
X213761752Y-111794847D01*
X213761752Y-111604371D01*
X213809371Y-111413895D01*
X213904609Y-111318657D01*
X214142704Y-111318657D01*
X214237942Y-111223419D01*
X214618895Y-112080561D02*
X215142704Y-110747228D01*
X214618895Y-110747228D02*
X215142704Y-112080561D01*
X216761752Y-110080561D02*
X216285561Y-110080561D01*
X216237942Y-111032942D01*
X216285561Y-110937704D01*
X216380800Y-110842466D01*
X216618895Y-110842466D01*
X216714133Y-110937704D01*
X216761752Y-111032942D01*
X216809371Y-111223419D01*
X216809371Y-111699609D01*
X216761752Y-111890085D01*
X216714133Y-111985323D01*
X216618895Y-112080561D01*
X216380800Y-112080561D01*
X216285561Y-111985323D01*
X216237942Y-111890085D01*
X217428419Y-110080561D02*
X217523657Y-110080561D01*
X217618895Y-110175800D01*
X217666514Y-110271038D01*
X217714133Y-110461514D01*
X217761752Y-110842466D01*
X217761752Y-111318657D01*
X217714133Y-111699609D01*
X217666514Y-111890085D01*
X217618895Y-111985323D01*
X217523657Y-112080561D01*
X217428419Y-112080561D01*
X217333180Y-111985323D01*
X217285561Y-111890085D01*
X217237942Y-111699609D01*
X217190323Y-111318657D01*
X217190323Y-110842466D01*
X217237942Y-110461514D01*
X217285561Y-110271038D01*
X217333180Y-110175800D01*
X217428419Y-110080561D01*
X219523657Y-111890085D02*
X219476038Y-111985323D01*
X219333180Y-112080561D01*
X219237942Y-112080561D01*
X219095085Y-111985323D01*
X218999847Y-111794847D01*
X218952228Y-111604371D01*
X218904609Y-111223419D01*
X218904609Y-110937704D01*
X218952228Y-110556752D01*
X218999847Y-110366276D01*
X219095085Y-110175800D01*
X219237942Y-110080561D01*
X219333180Y-110080561D01*
X219476038Y-110175800D01*
X219523657Y-110271038D01*
X220095085Y-112080561D02*
X219999847Y-111985323D01*
X219952228Y-111890085D01*
X219904609Y-111699609D01*
X219904609Y-111128180D01*
X219952228Y-110937704D01*
X219999847Y-110842466D01*
X220095085Y-110747228D01*
X220237942Y-110747228D01*
X220333180Y-110842466D01*
X220380800Y-110937704D01*
X220428419Y-111128180D01*
X220428419Y-111699609D01*
X220380800Y-111890085D01*
X220333180Y-111985323D01*
X220237942Y-112080561D01*
X220095085Y-112080561D01*
X220856990Y-112080561D02*
X220856990Y-110747228D01*
X220856990Y-111128180D02*
X220904609Y-110937704D01*
X220952228Y-110842466D01*
X221047466Y-110747228D01*
X221142704Y-110747228D01*
X221856990Y-111985323D02*
X221761752Y-112080561D01*
X221571276Y-112080561D01*
X221476038Y-111985323D01*
X221428419Y-111794847D01*
X221428419Y-111032942D01*
X221476038Y-110842466D01*
X221571276Y-110747228D01*
X221761752Y-110747228D01*
X221856990Y-110842466D01*
X221904609Y-111032942D01*
X221904609Y-111223419D01*
X221428419Y-111413895D01*
X222952228Y-110747228D02*
X223333180Y-110747228D01*
X223095085Y-110080561D02*
X223095085Y-111794847D01*
X223142704Y-111985323D01*
X223237942Y-112080561D01*
X223333180Y-112080561D01*
X223809371Y-112080561D02*
X223714133Y-111985323D01*
X223666514Y-111890085D01*
X223618895Y-111699609D01*
X223618895Y-111128180D01*
X223666514Y-110937704D01*
X223714133Y-110842466D01*
X223809371Y-110747228D01*
X223952228Y-110747228D01*
X224047466Y-110842466D01*
X224095085Y-110937704D01*
X224142704Y-111128180D01*
X224142704Y-111699609D01*
X224095085Y-111890085D01*
X224047466Y-111985323D01*
X223952228Y-112080561D01*
X223809371Y-112080561D01*
X225333180Y-112080561D02*
X225333180Y-110747228D01*
X225333180Y-110937704D02*
X225380800Y-110842466D01*
X225476038Y-110747228D01*
X225618895Y-110747228D01*
X225714133Y-110842466D01*
X225761752Y-111032942D01*
X225761752Y-112080561D01*
X225761752Y-111032942D02*
X225809371Y-110842466D01*
X225904609Y-110747228D01*
X226047466Y-110747228D01*
X226142704Y-110842466D01*
X226190323Y-111032942D01*
X226190323Y-112080561D01*
X226666514Y-112080561D02*
X226666514Y-110747228D01*
X226666514Y-110080561D02*
X226618895Y-110175800D01*
X226666514Y-110271038D01*
X226714133Y-110175800D01*
X226666514Y-110080561D01*
X226666514Y-110271038D01*
X227142704Y-110747228D02*
X227142704Y-112080561D01*
X227142704Y-110937704D02*
X227190323Y-110842466D01*
X227285561Y-110747228D01*
X227428419Y-110747228D01*
X227523657Y-110842466D01*
X227571276Y-111032942D01*
X227571276Y-112080561D01*
X228047466Y-112080561D02*
X228047466Y-110747228D01*
X228047466Y-110080561D02*
X227999847Y-110175800D01*
X228047466Y-110271038D01*
X228095085Y-110175800D01*
X228047466Y-110080561D01*
X228047466Y-110271038D01*
X228523657Y-110747228D02*
X228523657Y-112080561D01*
X228523657Y-110937704D02*
X228571276Y-110842466D01*
X228666514Y-110747228D01*
X228809371Y-110747228D01*
X228904609Y-110842466D01*
X228952228Y-111032942D01*
X228952228Y-112080561D01*
X229856990Y-110747228D02*
X229856990Y-112366276D01*
X229809371Y-112556752D01*
X229761752Y-112651990D01*
X229666514Y-112747228D01*
X229523657Y-112747228D01*
X229428419Y-112651990D01*
X229856990Y-111985323D02*
X229761752Y-112080561D01*
X229571276Y-112080561D01*
X229476038Y-111985323D01*
X229428419Y-111890085D01*
X229380800Y-111699609D01*
X229380800Y-111128180D01*
X229428419Y-110937704D01*
X229476038Y-110842466D01*
X229571276Y-110747228D01*
X229761752Y-110747228D01*
X229856990Y-110842466D01*
X230999847Y-110747228D02*
X231190323Y-112080561D01*
X231380800Y-111128180D01*
X231571276Y-112080561D01*
X231761752Y-110747228D01*
X232142704Y-112080561D02*
X232142704Y-110747228D01*
X232142704Y-110080561D02*
X232095085Y-110175800D01*
X232142704Y-110271038D01*
X232190323Y-110175800D01*
X232142704Y-110080561D01*
X232142704Y-110271038D01*
X232476038Y-110747228D02*
X232856990Y-110747228D01*
X232618895Y-110080561D02*
X232618895Y-111794847D01*
X232666514Y-111985323D01*
X232761752Y-112080561D01*
X232856990Y-112080561D01*
X233190323Y-112080561D02*
X233190323Y-110080561D01*
X233618895Y-112080561D02*
X233618895Y-111032942D01*
X233571276Y-110842466D01*
X233476038Y-110747228D01*
X233333180Y-110747228D01*
X233237942Y-110842466D01*
X233190323Y-110937704D01*
X235333180Y-110080561D02*
X234856990Y-110080561D01*
X234809371Y-111032942D01*
X234856990Y-110937704D01*
X234952228Y-110842466D01*
X235190323Y-110842466D01*
X235285561Y-110937704D01*
X235333180Y-111032942D01*
X235380800Y-111223419D01*
X235380800Y-111699609D01*
X235333180Y-111890085D01*
X235285561Y-111985323D01*
X235190323Y-112080561D01*
X234952228Y-112080561D01*
X234856990Y-111985323D01*
X234809371Y-111890085D01*
X236571276Y-111032942D02*
X236904609Y-111032942D01*
X237047466Y-112080561D02*
X236571276Y-112080561D01*
X236571276Y-110080561D01*
X237047466Y-110080561D01*
X237428419Y-111985323D02*
X237571276Y-112080561D01*
X237809371Y-112080561D01*
X237904609Y-111985323D01*
X237952228Y-111890085D01*
X237999847Y-111699609D01*
X237999847Y-111509133D01*
X237952228Y-111318657D01*
X237904609Y-111223419D01*
X237809371Y-111128180D01*
X237618895Y-111032942D01*
X237523657Y-110937704D01*
X237476038Y-110842466D01*
X237428419Y-110651990D01*
X237428419Y-110461514D01*
X237476038Y-110271038D01*
X237523657Y-110175800D01*
X237618895Y-110080561D01*
X237856990Y-110080561D01*
X237999847Y-110175800D01*
X238428419Y-112080561D02*
X238428419Y-110080561D01*
X238809371Y-110080561D01*
X238904609Y-110175800D01*
X238952228Y-110271038D01*
X238999847Y-110461514D01*
X238999847Y-110747228D01*
X238952228Y-110937704D01*
X238904609Y-111032942D01*
X238809371Y-111128180D01*
X238428419Y-111128180D01*
X239428419Y-111318657D02*
X240190323Y-111318657D01*
X240856990Y-110080561D02*
X240952228Y-110080561D01*
X241047466Y-110175800D01*
X241095085Y-110271038D01*
X241142704Y-110461514D01*
X241190323Y-110842466D01*
X241190323Y-111318657D01*
X241142704Y-111699609D01*
X241095085Y-111890085D01*
X241047466Y-111985323D01*
X240952228Y-112080561D01*
X240856990Y-112080561D01*
X240761752Y-111985323D01*
X240714133Y-111890085D01*
X240666514Y-111699609D01*
X240618895Y-111318657D01*
X240618895Y-110842466D01*
X240666514Y-110461514D01*
X240714133Y-110271038D01*
X240761752Y-110175800D01*
X240856990Y-110080561D01*
X242142704Y-112080561D02*
X241571276Y-112080561D01*
X241856990Y-112080561D02*
X241856990Y-110080561D01*
X241761752Y-110366276D01*
X241666514Y-110556752D01*
X241571276Y-110651990D01*
D11*
X232060323Y-83027323D02*
X232203180Y-83122561D01*
X232441276Y-83122561D01*
X232536514Y-83027323D01*
X232584133Y-82932085D01*
X232631752Y-82741609D01*
X232631752Y-82551133D01*
X232584133Y-82360657D01*
X232536514Y-82265419D01*
X232441276Y-82170180D01*
X232250800Y-82074942D01*
X232155561Y-81979704D01*
X232107942Y-81884466D01*
X232060323Y-81693990D01*
X232060323Y-81503514D01*
X232107942Y-81313038D01*
X232155561Y-81217800D01*
X232250800Y-81122561D01*
X232488895Y-81122561D01*
X232631752Y-81217800D01*
X233631752Y-82932085D02*
X233584133Y-83027323D01*
X233441276Y-83122561D01*
X233346038Y-83122561D01*
X233203180Y-83027323D01*
X233107942Y-82836847D01*
X233060323Y-82646371D01*
X233012704Y-82265419D01*
X233012704Y-81979704D01*
X233060323Y-81598752D01*
X233107942Y-81408276D01*
X233203180Y-81217800D01*
X233346038Y-81122561D01*
X233441276Y-81122561D01*
X233584133Y-81217800D01*
X233631752Y-81313038D01*
X234536514Y-83122561D02*
X234060323Y-83122561D01*
X234060323Y-81122561D01*
X231917466Y-76042561D02*
X232250800Y-78042561D01*
X232584133Y-76042561D01*
X233488895Y-77852085D02*
X233441276Y-77947323D01*
X233298419Y-78042561D01*
X233203180Y-78042561D01*
X233060323Y-77947323D01*
X232965085Y-77756847D01*
X232917466Y-77566371D01*
X232869847Y-77185419D01*
X232869847Y-76899704D01*
X232917466Y-76518752D01*
X232965085Y-76328276D01*
X233060323Y-76137800D01*
X233203180Y-76042561D01*
X233298419Y-76042561D01*
X233441276Y-76137800D01*
X233488895Y-76233038D01*
X234488895Y-77852085D02*
X234441276Y-77947323D01*
X234298419Y-78042561D01*
X234203180Y-78042561D01*
X234060323Y-77947323D01*
X233965085Y-77756847D01*
X233917466Y-77566371D01*
X233869847Y-77185419D01*
X233869847Y-76899704D01*
X233917466Y-76518752D01*
X233965085Y-76328276D01*
X234060323Y-76137800D01*
X234203180Y-76042561D01*
X234298419Y-76042561D01*
X234441276Y-76137800D01*
X234488895Y-76233038D01*
X232032323Y-40357323D02*
X232175180Y-40452561D01*
X232413276Y-40452561D01*
X232508514Y-40357323D01*
X232556133Y-40262085D01*
X232603752Y-40071609D01*
X232603752Y-39881133D01*
X232556133Y-39690657D01*
X232508514Y-39595419D01*
X232413276Y-39500180D01*
X232222800Y-39404942D01*
X232127561Y-39309704D01*
X232079942Y-39214466D01*
X232032323Y-39023990D01*
X232032323Y-38833514D01*
X232079942Y-38643038D01*
X232127561Y-38547800D01*
X232222800Y-38452561D01*
X232460895Y-38452561D01*
X232603752Y-38547800D01*
X233603752Y-40262085D02*
X233556133Y-40357323D01*
X233413276Y-40452561D01*
X233318038Y-40452561D01*
X233175180Y-40357323D01*
X233079942Y-40166847D01*
X233032323Y-39976371D01*
X232984704Y-39595419D01*
X232984704Y-39309704D01*
X233032323Y-38928752D01*
X233079942Y-38738276D01*
X233175180Y-38547800D01*
X233318038Y-38452561D01*
X233413276Y-38452561D01*
X233556133Y-38547800D01*
X233603752Y-38643038D01*
X234508514Y-40452561D02*
X234032323Y-40452561D01*
X234032323Y-38452561D01*
X177406133Y-25733238D02*
X177072800Y-23733238D01*
X176739466Y-25733238D01*
X175834704Y-23923714D02*
X175882323Y-23828476D01*
X176025180Y-23733238D01*
X176120419Y-23733238D01*
X176263276Y-23828476D01*
X176358514Y-24018952D01*
X176406133Y-24209428D01*
X176453752Y-24590380D01*
X176453752Y-24876095D01*
X176406133Y-25257047D01*
X176358514Y-25447523D01*
X176263276Y-25638000D01*
X176120419Y-25733238D01*
X176025180Y-25733238D01*
X175882323Y-25638000D01*
X175834704Y-25542761D01*
X174834704Y-23923714D02*
X174882323Y-23828476D01*
X175025180Y-23733238D01*
X175120419Y-23733238D01*
X175263276Y-23828476D01*
X175358514Y-24018952D01*
X175406133Y-24209428D01*
X175453752Y-24590380D01*
X175453752Y-24876095D01*
X175406133Y-25257047D01*
X175358514Y-25447523D01*
X175263276Y-25638000D01*
X175120419Y-25733238D01*
X175025180Y-25733238D01*
X174882323Y-25638000D01*
X174834704Y-25542761D01*
D12*
X249362933Y-23521890D02*
X248791504Y-23521890D01*
X249077219Y-23521890D02*
X249077219Y-23021890D01*
X248981980Y-23093319D01*
X248886742Y-23140938D01*
X248791504Y-23164747D01*
X250220076Y-23188557D02*
X250220076Y-23521890D01*
X249791504Y-23188557D02*
X249791504Y-23450461D01*
X249839123Y-23498080D01*
X249934361Y-23521890D01*
X250077219Y-23521890D01*
X250172457Y-23498080D01*
X250220076Y-23474271D01*
X248862933Y-24326890D02*
X248291504Y-24326890D01*
X248577219Y-24326890D02*
X248577219Y-23826890D01*
X248481980Y-23898319D01*
X248386742Y-23945938D01*
X248291504Y-23969747D01*
X249481980Y-23826890D02*
X249577219Y-23826890D01*
X249672457Y-23850700D01*
X249720076Y-23874509D01*
X249767695Y-23922128D01*
X249815314Y-24017366D01*
X249815314Y-24136414D01*
X249767695Y-24231652D01*
X249720076Y-24279271D01*
X249672457Y-24303080D01*
X249577219Y-24326890D01*
X249481980Y-24326890D01*
X249386742Y-24303080D01*
X249339123Y-24279271D01*
X249291504Y-24231652D01*
X249243885Y-24136414D01*
X249243885Y-24017366D01*
X249291504Y-23922128D01*
X249339123Y-23874509D01*
X249386742Y-23850700D01*
X249481980Y-23826890D01*
X250720076Y-23826890D02*
X250243885Y-23826890D01*
X250196266Y-24064985D01*
X250243885Y-24041176D01*
X250339123Y-24017366D01*
X250577219Y-24017366D01*
X250672457Y-24041176D01*
X250720076Y-24064985D01*
X250767695Y-24112604D01*
X250767695Y-24231652D01*
X250720076Y-24279271D01*
X250672457Y-24303080D01*
X250577219Y-24326890D01*
X250339123Y-24326890D01*
X250243885Y-24303080D01*
X250196266Y-24279271D01*
D11*
X191072047Y-114844580D02*
X190119666Y-114844580D01*
X190024428Y-115320771D01*
X190119666Y-115273152D01*
X190310142Y-115225533D01*
X190786333Y-115225533D01*
X190976809Y-115273152D01*
X191072047Y-115320771D01*
X191167285Y-115416009D01*
X191167285Y-115654104D01*
X191072047Y-115749342D01*
X190976809Y-115796961D01*
X190786333Y-115844580D01*
X190310142Y-115844580D01*
X190119666Y-115796961D01*
X190024428Y-115749342D01*
X191738714Y-114844580D02*
X192405380Y-115844580D01*
X193072047Y-114844580D01*
X195643476Y-114844580D02*
X196024428Y-114844580D01*
X196214904Y-114892200D01*
X196405380Y-114987438D01*
X196500619Y-115177914D01*
X196500619Y-115511247D01*
X196405380Y-115701723D01*
X196214904Y-115796961D01*
X196024428Y-115844580D01*
X195643476Y-115844580D01*
X195453000Y-115796961D01*
X195262523Y-115701723D01*
X195167285Y-115511247D01*
X195167285Y-115177914D01*
X195262523Y-114987438D01*
X195453000Y-114892200D01*
X195643476Y-114844580D01*
X197357761Y-115177914D02*
X197357761Y-115844580D01*
X197357761Y-115273152D02*
X197453000Y-115225533D01*
X197643476Y-115177914D01*
X197929190Y-115177914D01*
X198119666Y-115225533D01*
X198214904Y-115320771D01*
X198214904Y-115844580D01*
X199453000Y-115844580D02*
X199262523Y-115796961D01*
X199167285Y-115701723D01*
X199167285Y-114844580D01*
X200024428Y-115177914D02*
X200500619Y-115844580D01*
X200976809Y-115177914D02*
X200500619Y-115844580D01*
X200310142Y-116082676D01*
X200214904Y-116130295D01*
X200024428Y-116177914D01*
X199681552Y-22315419D02*
X200633933Y-22315419D01*
X200729171Y-21839228D01*
X200633933Y-21886847D01*
X200443457Y-21934466D01*
X199967266Y-21934466D01*
X199776790Y-21886847D01*
X199681552Y-21839228D01*
X199586314Y-21743990D01*
X199586314Y-21505895D01*
X199681552Y-21410657D01*
X199776790Y-21363038D01*
X199967266Y-21315419D01*
X200443457Y-21315419D01*
X200633933Y-21363038D01*
X200729171Y-21410657D01*
X199014885Y-22315419D02*
X198348219Y-21315419D01*
X197681552Y-22315419D01*
X195110123Y-22315419D02*
X194729171Y-22315419D01*
X194538695Y-22267800D01*
X194348219Y-22172561D01*
X194252980Y-21982085D01*
X194252980Y-21648752D01*
X194348219Y-21458276D01*
X194538695Y-21363038D01*
X194729171Y-21315419D01*
X195110123Y-21315419D01*
X195300600Y-21363038D01*
X195491076Y-21458276D01*
X195586314Y-21648752D01*
X195586314Y-21982085D01*
X195491076Y-22172561D01*
X195300600Y-22267800D01*
X195110123Y-22315419D01*
X193395838Y-21982085D02*
X193395838Y-21315419D01*
X193395838Y-21886847D02*
X193300600Y-21934466D01*
X193110123Y-21982085D01*
X192824409Y-21982085D01*
X192633933Y-21934466D01*
X192538695Y-21839228D01*
X192538695Y-21315419D01*
X191300600Y-21315419D02*
X191491076Y-21363038D01*
X191586314Y-21458276D01*
X191586314Y-22315419D01*
X190729171Y-21982085D02*
X190252980Y-21315419D01*
X189776790Y-21982085D02*
X190252980Y-21315419D01*
X190443457Y-21077323D01*
X190538695Y-21029704D01*
X190729171Y-20982085D01*
D12*
X252868133Y-23547290D02*
X252296704Y-23547290D01*
X252582419Y-23547290D02*
X252582419Y-23047290D01*
X252487180Y-23118719D01*
X252391942Y-23166338D01*
X252296704Y-23190147D01*
X253725276Y-23213957D02*
X253725276Y-23547290D01*
X253296704Y-23213957D02*
X253296704Y-23475861D01*
X253344323Y-23523480D01*
X253439561Y-23547290D01*
X253582419Y-23547290D01*
X253677657Y-23523480D01*
X253725276Y-23499671D01*
X252368133Y-24352290D02*
X251796704Y-24352290D01*
X252082419Y-24352290D02*
X252082419Y-23852290D01*
X251987180Y-23923719D01*
X251891942Y-23971338D01*
X251796704Y-23995147D01*
X252987180Y-23852290D02*
X253082419Y-23852290D01*
X253177657Y-23876100D01*
X253225276Y-23899909D01*
X253272895Y-23947528D01*
X253320514Y-24042766D01*
X253320514Y-24161814D01*
X253272895Y-24257052D01*
X253225276Y-24304671D01*
X253177657Y-24328480D01*
X253082419Y-24352290D01*
X252987180Y-24352290D01*
X252891942Y-24328480D01*
X252844323Y-24304671D01*
X252796704Y-24257052D01*
X252749085Y-24161814D01*
X252749085Y-24042766D01*
X252796704Y-23947528D01*
X252844323Y-23899909D01*
X252891942Y-23876100D01*
X252987180Y-23852290D01*
X254225276Y-23852290D02*
X253749085Y-23852290D01*
X253701466Y-24090385D01*
X253749085Y-24066576D01*
X253844323Y-24042766D01*
X254082419Y-24042766D01*
X254177657Y-24066576D01*
X254225276Y-24090385D01*
X254272895Y-24138004D01*
X254272895Y-24257052D01*
X254225276Y-24304671D01*
X254177657Y-24328480D01*
X254082419Y-24352290D01*
X253844323Y-24352290D01*
X253749085Y-24328480D01*
X253701466Y-24304671D01*
D11*
X232060323Y-68803323D02*
X232203180Y-68898561D01*
X232441276Y-68898561D01*
X232536514Y-68803323D01*
X232584133Y-68708085D01*
X232631752Y-68517609D01*
X232631752Y-68327133D01*
X232584133Y-68136657D01*
X232536514Y-68041419D01*
X232441276Y-67946180D01*
X232250800Y-67850942D01*
X232155561Y-67755704D01*
X232107942Y-67660466D01*
X232060323Y-67469990D01*
X232060323Y-67279514D01*
X232107942Y-67089038D01*
X232155561Y-66993800D01*
X232250800Y-66898561D01*
X232488895Y-66898561D01*
X232631752Y-66993800D01*
X233631752Y-68708085D02*
X233584133Y-68803323D01*
X233441276Y-68898561D01*
X233346038Y-68898561D01*
X233203180Y-68803323D01*
X233107942Y-68612847D01*
X233060323Y-68422371D01*
X233012704Y-68041419D01*
X233012704Y-67755704D01*
X233060323Y-67374752D01*
X233107942Y-67184276D01*
X233203180Y-66993800D01*
X233346038Y-66898561D01*
X233441276Y-66898561D01*
X233584133Y-66993800D01*
X233631752Y-67089038D01*
X234536514Y-68898561D02*
X234060323Y-68898561D01*
X234060323Y-66898561D01*
X232036514Y-52039323D02*
X232179371Y-52134561D01*
X232417466Y-52134561D01*
X232512704Y-52039323D01*
X232560323Y-51944085D01*
X232607942Y-51753609D01*
X232607942Y-51563133D01*
X232560323Y-51372657D01*
X232512704Y-51277419D01*
X232417466Y-51182180D01*
X232226990Y-51086942D01*
X232131752Y-50991704D01*
X232084133Y-50896466D01*
X232036514Y-50705990D01*
X232036514Y-50515514D01*
X232084133Y-50325038D01*
X232131752Y-50229800D01*
X232226990Y-50134561D01*
X232465085Y-50134561D01*
X232607942Y-50229800D01*
X233036514Y-52134561D02*
X233036514Y-50134561D01*
X233274609Y-50134561D01*
X233417466Y-50229800D01*
X233512704Y-50420276D01*
X233560323Y-50610752D01*
X233607942Y-50991704D01*
X233607942Y-51277419D01*
X233560323Y-51658371D01*
X233512704Y-51848847D01*
X233417466Y-52039323D01*
X233274609Y-52134561D01*
X233036514Y-52134561D01*
X233988895Y-51563133D02*
X234465085Y-51563133D01*
X233893657Y-52134561D02*
X234226990Y-50134561D01*
X234560323Y-52134561D01*
%TO.C,R1*%
X244749723Y-32431980D02*
X244178295Y-32431980D01*
X244464009Y-32431980D02*
X244464009Y-31431980D01*
X244368771Y-31574838D01*
X244273533Y-31670076D01*
X244178295Y-31717695D01*
X245368771Y-31431980D02*
X245464009Y-31431980D01*
X245559247Y-31479600D01*
X245606866Y-31527219D01*
X245654485Y-31622457D01*
X245702104Y-31812933D01*
X245702104Y-32051028D01*
X245654485Y-32241504D01*
X245606866Y-32336742D01*
X245559247Y-32384361D01*
X245464009Y-32431980D01*
X245368771Y-32431980D01*
X245273533Y-32384361D01*
X245225914Y-32336742D01*
X245178295Y-32241504D01*
X245130676Y-32051028D01*
X245130676Y-31812933D01*
X245178295Y-31622457D01*
X245225914Y-31527219D01*
X245273533Y-31479600D01*
X245368771Y-31431980D01*
X246130676Y-32431980D02*
X246130676Y-31431980D01*
X246702104Y-32431980D02*
X246273533Y-31860552D01*
X246702104Y-31431980D02*
X246130676Y-32003409D01*
%TO.C,R2*%
X245105323Y-49195980D02*
X244533895Y-49195980D01*
X244819609Y-49195980D02*
X244819609Y-48195980D01*
X244724371Y-48338838D01*
X244629133Y-48434076D01*
X244533895Y-48481695D01*
X245724371Y-48195980D02*
X245819609Y-48195980D01*
X245914847Y-48243600D01*
X245962466Y-48291219D01*
X246010085Y-48386457D01*
X246057704Y-48576933D01*
X246057704Y-48815028D01*
X246010085Y-49005504D01*
X245962466Y-49100742D01*
X245914847Y-49148361D01*
X245819609Y-49195980D01*
X245724371Y-49195980D01*
X245629133Y-49148361D01*
X245581514Y-49100742D01*
X245533895Y-49005504D01*
X245486276Y-48815028D01*
X245486276Y-48576933D01*
X245533895Y-48386457D01*
X245581514Y-48291219D01*
X245629133Y-48243600D01*
X245724371Y-48195980D01*
X246486276Y-49195980D02*
X246486276Y-48195980D01*
X247057704Y-49195980D02*
X246629133Y-48624552D01*
X247057704Y-48195980D02*
X246486276Y-48767409D01*
%TO.C,R3*%
X244851323Y-66010780D02*
X244279895Y-66010780D01*
X244565609Y-66010780D02*
X244565609Y-65010780D01*
X244470371Y-65153638D01*
X244375133Y-65248876D01*
X244279895Y-65296495D01*
X245470371Y-65010780D02*
X245565609Y-65010780D01*
X245660847Y-65058400D01*
X245708466Y-65106019D01*
X245756085Y-65201257D01*
X245803704Y-65391733D01*
X245803704Y-65629828D01*
X245756085Y-65820304D01*
X245708466Y-65915542D01*
X245660847Y-65963161D01*
X245565609Y-66010780D01*
X245470371Y-66010780D01*
X245375133Y-65963161D01*
X245327514Y-65915542D01*
X245279895Y-65820304D01*
X245232276Y-65629828D01*
X245232276Y-65391733D01*
X245279895Y-65201257D01*
X245327514Y-65106019D01*
X245375133Y-65058400D01*
X245470371Y-65010780D01*
X246232276Y-66010780D02*
X246232276Y-65010780D01*
X246803704Y-66010780D02*
X246375133Y-65439352D01*
X246803704Y-65010780D02*
X246232276Y-65582209D01*
%TO.C,R4*%
X245003723Y-82749380D02*
X244432295Y-82749380D01*
X244718009Y-82749380D02*
X244718009Y-81749380D01*
X244622771Y-81892238D01*
X244527533Y-81987476D01*
X244432295Y-82035095D01*
X245622771Y-81749380D02*
X245718009Y-81749380D01*
X245813247Y-81797000D01*
X245860866Y-81844619D01*
X245908485Y-81939857D01*
X245956104Y-82130333D01*
X245956104Y-82368428D01*
X245908485Y-82558904D01*
X245860866Y-82654142D01*
X245813247Y-82701761D01*
X245718009Y-82749380D01*
X245622771Y-82749380D01*
X245527533Y-82701761D01*
X245479914Y-82654142D01*
X245432295Y-82558904D01*
X245384676Y-82368428D01*
X245384676Y-82130333D01*
X245432295Y-81939857D01*
X245479914Y-81844619D01*
X245527533Y-81797000D01*
X245622771Y-81749380D01*
X246384676Y-82749380D02*
X246384676Y-81749380D01*
X246956104Y-82749380D02*
X246527533Y-82177952D01*
X246956104Y-81749380D02*
X246384676Y-82320809D01*
%TO.C,R5*%
X245003723Y-99513380D02*
X244432295Y-99513380D01*
X244718009Y-99513380D02*
X244718009Y-98513380D01*
X244622771Y-98656238D01*
X244527533Y-98751476D01*
X244432295Y-98799095D01*
X245622771Y-98513380D02*
X245718009Y-98513380D01*
X245813247Y-98561000D01*
X245860866Y-98608619D01*
X245908485Y-98703857D01*
X245956104Y-98894333D01*
X245956104Y-99132428D01*
X245908485Y-99322904D01*
X245860866Y-99418142D01*
X245813247Y-99465761D01*
X245718009Y-99513380D01*
X245622771Y-99513380D01*
X245527533Y-99465761D01*
X245479914Y-99418142D01*
X245432295Y-99322904D01*
X245384676Y-99132428D01*
X245384676Y-98894333D01*
X245432295Y-98703857D01*
X245479914Y-98608619D01*
X245527533Y-98561000D01*
X245622771Y-98513380D01*
X246384676Y-99513380D02*
X246384676Y-98513380D01*
X246956104Y-99513380D02*
X246527533Y-98941952D01*
X246956104Y-98513380D02*
X246384676Y-99084809D01*
D10*
%TO.C,J1*%
X228336800Y-33197800D02*
X230996800Y-33197800D01*
X228336800Y-33197800D02*
X228336800Y-40877800D01*
X230996800Y-33197800D02*
X230996800Y-40877800D01*
X229666800Y-30597800D02*
X230996800Y-30597800D01*
X228336800Y-40877800D02*
X230996800Y-40877800D01*
X230996800Y-30597800D02*
X230996800Y-31927800D01*
%TO.C,J2*%
X224900800Y-33197800D02*
X224900800Y-40877800D01*
X224900800Y-30597800D02*
X224900800Y-31927800D01*
X222240800Y-33197800D02*
X224900800Y-33197800D01*
X222240800Y-40877800D02*
X224900800Y-40877800D01*
X223570800Y-30597800D02*
X224900800Y-30597800D01*
X222240800Y-33197800D02*
X222240800Y-40877800D01*
%TO.C,J3*%
X216144800Y-33197800D02*
X216144800Y-40877800D01*
X217474800Y-30597800D02*
X218804800Y-30597800D01*
X218804800Y-30597800D02*
X218804800Y-31927800D01*
X218804800Y-33197800D02*
X218804800Y-40877800D01*
X216144800Y-40877800D02*
X218804800Y-40877800D01*
X216144800Y-33197800D02*
X218804800Y-33197800D01*
%TO.C,J4*%
X210048800Y-33197800D02*
X210048800Y-40877800D01*
X212708800Y-33197800D02*
X212708800Y-40877800D01*
X210048800Y-40877800D02*
X212708800Y-40877800D01*
X212708800Y-30597800D02*
X212708800Y-31927800D01*
X211378800Y-30597800D02*
X212708800Y-30597800D01*
X210048800Y-33197800D02*
X212708800Y-33197800D01*
%TO.C,J5*%
X206612800Y-30597800D02*
X206612800Y-31927800D01*
X203952800Y-33197800D02*
X203952800Y-40877800D01*
X203952800Y-40877800D02*
X206612800Y-40877800D01*
X203952800Y-33197800D02*
X206612800Y-33197800D01*
X206612800Y-33197800D02*
X206612800Y-40877800D01*
X205282800Y-30597800D02*
X206612800Y-30597800D01*
%TO.C,J6*%
X200516800Y-30597800D02*
X200516800Y-31927800D01*
X200516800Y-33197800D02*
X200516800Y-40877800D01*
X197856800Y-40877800D02*
X200516800Y-40877800D01*
X197856800Y-33197800D02*
X197856800Y-40877800D01*
X199186800Y-30597800D02*
X200516800Y-30597800D01*
X197856800Y-33197800D02*
X200516800Y-33197800D01*
%TO.C,J7*%
X194420800Y-30597800D02*
X194420800Y-31927800D01*
X191760800Y-33197800D02*
X194420800Y-33197800D01*
X191760800Y-40877800D02*
X194420800Y-40877800D01*
X193090800Y-30597800D02*
X194420800Y-30597800D01*
X191760800Y-33197800D02*
X191760800Y-40877800D01*
X194420800Y-33197800D02*
X194420800Y-40877800D01*
%TO.C,J8*%
X185664800Y-40877800D02*
X188324800Y-40877800D01*
X188324800Y-30597800D02*
X188324800Y-31927800D01*
X188324800Y-33197800D02*
X188324800Y-40877800D01*
X185664800Y-33197800D02*
X185664800Y-40877800D01*
X185664800Y-33197800D02*
X188324800Y-33197800D01*
X186994800Y-30597800D02*
X188324800Y-30597800D01*
%TO.C,J9*%
X179568800Y-33197800D02*
X182228800Y-33197800D01*
X179568800Y-33197800D02*
X179568800Y-40877800D01*
X179568800Y-40877800D02*
X182228800Y-40877800D01*
X180898800Y-30597800D02*
X182228800Y-30597800D01*
X182228800Y-30597800D02*
X182228800Y-31927800D01*
X182228800Y-33197800D02*
X182228800Y-40877800D01*
%TO.C,J10*%
X176132800Y-30597800D02*
X176132800Y-31927800D01*
X176132800Y-33197800D02*
X176132800Y-40877800D01*
X174802800Y-30597800D02*
X176132800Y-30597800D01*
X173472800Y-40877800D02*
X176132800Y-40877800D01*
X173472800Y-33197800D02*
X176132800Y-33197800D01*
X173472800Y-33197800D02*
X173472800Y-40877800D01*
%TO.C,J12*%
X230996800Y-44821800D02*
X230996800Y-46151800D01*
X228336800Y-47421800D02*
X230996800Y-47421800D01*
X228336800Y-55101800D02*
X230996800Y-55101800D01*
X229666800Y-44821800D02*
X230996800Y-44821800D01*
X230996800Y-47421800D02*
X230996800Y-55101800D01*
X228336800Y-47421800D02*
X228336800Y-55101800D01*
%TO.C,J13*%
X222240800Y-47421800D02*
X224900800Y-47421800D01*
X224900800Y-44821800D02*
X224900800Y-46151800D01*
X224900800Y-47421800D02*
X224900800Y-55101800D01*
X222240800Y-55101800D02*
X224900800Y-55101800D01*
X223570800Y-44821800D02*
X224900800Y-44821800D01*
X222240800Y-47421800D02*
X222240800Y-55101800D01*
%TO.C,J14*%
X216144800Y-55101800D02*
X218804800Y-55101800D01*
X218804800Y-44821800D02*
X218804800Y-46151800D01*
X216144800Y-47421800D02*
X216144800Y-55101800D01*
X217474800Y-44821800D02*
X218804800Y-44821800D01*
X216144800Y-47421800D02*
X218804800Y-47421800D01*
X218804800Y-47421800D02*
X218804800Y-55101800D01*
%TO.C,J15*%
X212708800Y-47421800D02*
X212708800Y-55101800D01*
X210048800Y-47421800D02*
X212708800Y-47421800D01*
X210048800Y-55101800D02*
X212708800Y-55101800D01*
X212708800Y-44821800D02*
X212708800Y-46151800D01*
X210048800Y-47421800D02*
X210048800Y-55101800D01*
X211378800Y-44821800D02*
X212708800Y-44821800D01*
%TO.C,J16*%
X203952800Y-47421800D02*
X203952800Y-55101800D01*
X206612800Y-47421800D02*
X206612800Y-55101800D01*
X206612800Y-44821800D02*
X206612800Y-46151800D01*
X205282800Y-44821800D02*
X206612800Y-44821800D01*
X203952800Y-47421800D02*
X206612800Y-47421800D01*
X203952800Y-55101800D02*
X206612800Y-55101800D01*
%TO.C,J17*%
X200516800Y-47421800D02*
X200516800Y-55101800D01*
X197856800Y-47421800D02*
X197856800Y-55101800D01*
X200516800Y-44821800D02*
X200516800Y-46151800D01*
X199186800Y-44821800D02*
X200516800Y-44821800D01*
X197856800Y-55101800D02*
X200516800Y-55101800D01*
X197856800Y-47421800D02*
X200516800Y-47421800D01*
%TO.C,J18*%
X191760800Y-47421800D02*
X191760800Y-55101800D01*
X193090800Y-44821800D02*
X194420800Y-44821800D01*
X191760800Y-47421800D02*
X194420800Y-47421800D01*
X194420800Y-44821800D02*
X194420800Y-46151800D01*
X191760800Y-55101800D02*
X194420800Y-55101800D01*
X194420800Y-47421800D02*
X194420800Y-55101800D01*
%TO.C,J19*%
X185664800Y-47421800D02*
X185664800Y-55101800D01*
X185664800Y-47421800D02*
X188324800Y-47421800D01*
X185664800Y-55101800D02*
X188324800Y-55101800D01*
X186994800Y-44821800D02*
X188324800Y-44821800D01*
X188324800Y-47421800D02*
X188324800Y-55101800D01*
X188324800Y-44821800D02*
X188324800Y-46151800D01*
%TO.C,J20*%
X179568800Y-47421800D02*
X182228800Y-47421800D01*
X182228800Y-44821800D02*
X182228800Y-46151800D01*
X179568800Y-55101800D02*
X182228800Y-55101800D01*
X182228800Y-47421800D02*
X182228800Y-55101800D01*
X180898800Y-44821800D02*
X182228800Y-44821800D01*
X179568800Y-47421800D02*
X179568800Y-55101800D01*
%TO.C,J21*%
X173472800Y-47421800D02*
X173472800Y-55101800D01*
X174802800Y-44821800D02*
X176132800Y-44821800D01*
X176132800Y-44821800D02*
X176132800Y-46151800D01*
X173472800Y-55101800D02*
X176132800Y-55101800D01*
X176132800Y-47421800D02*
X176132800Y-55101800D01*
X173472800Y-47421800D02*
X176132800Y-47421800D01*
%TO.C,J23*%
X228336800Y-61645800D02*
X228336800Y-69325800D01*
X228336800Y-61645800D02*
X230996800Y-61645800D01*
X229666800Y-59045800D02*
X230996800Y-59045800D01*
X230996800Y-61645800D02*
X230996800Y-69325800D01*
X228336800Y-69325800D02*
X230996800Y-69325800D01*
X230996800Y-59045800D02*
X230996800Y-60375800D01*
%TO.C,J24*%
X222240800Y-69325800D02*
X224900800Y-69325800D01*
X222240800Y-61645800D02*
X224900800Y-61645800D01*
X224900800Y-59045800D02*
X224900800Y-60375800D01*
X224900800Y-61645800D02*
X224900800Y-69325800D01*
X223570800Y-59045800D02*
X224900800Y-59045800D01*
X222240800Y-61645800D02*
X222240800Y-69325800D01*
%TO.C,J25*%
X216144800Y-61645800D02*
X218804800Y-61645800D01*
X216144800Y-61645800D02*
X216144800Y-69325800D01*
X217474800Y-59045800D02*
X218804800Y-59045800D01*
X218804800Y-61645800D02*
X218804800Y-69325800D01*
X218804800Y-59045800D02*
X218804800Y-60375800D01*
X216144800Y-69325800D02*
X218804800Y-69325800D01*
%TO.C,J26*%
X212708800Y-61645800D02*
X212708800Y-69325800D01*
X210048800Y-69325800D02*
X212708800Y-69325800D01*
X210048800Y-61645800D02*
X210048800Y-69325800D01*
X211378800Y-59045800D02*
X212708800Y-59045800D01*
X210048800Y-61645800D02*
X212708800Y-61645800D01*
X212708800Y-59045800D02*
X212708800Y-60375800D01*
%TO.C,J27*%
X203952800Y-69325800D02*
X206612800Y-69325800D01*
X205282800Y-59045800D02*
X206612800Y-59045800D01*
X203952800Y-61645800D02*
X206612800Y-61645800D01*
X203952800Y-61645800D02*
X203952800Y-69325800D01*
X206612800Y-61645800D02*
X206612800Y-69325800D01*
X206612800Y-59045800D02*
X206612800Y-60375800D01*
%TO.C,J28*%
X200516800Y-61645800D02*
X200516800Y-69325800D01*
X197856800Y-61645800D02*
X197856800Y-69325800D01*
X197856800Y-61645800D02*
X200516800Y-61645800D01*
X197856800Y-69325800D02*
X200516800Y-69325800D01*
X199186800Y-59045800D02*
X200516800Y-59045800D01*
X200516800Y-59045800D02*
X200516800Y-60375800D01*
%TO.C,J29*%
X191760800Y-61645800D02*
X194420800Y-61645800D01*
X193090800Y-59045800D02*
X194420800Y-59045800D01*
X191760800Y-69325800D02*
X194420800Y-69325800D01*
X191760800Y-61645800D02*
X191760800Y-69325800D01*
X194420800Y-61645800D02*
X194420800Y-69325800D01*
X194420800Y-59045800D02*
X194420800Y-60375800D01*
%TO.C,J30*%
X185664800Y-61645800D02*
X185664800Y-69325800D01*
X186994800Y-59045800D02*
X188324800Y-59045800D01*
X185664800Y-61645800D02*
X188324800Y-61645800D01*
X188324800Y-61645800D02*
X188324800Y-69325800D01*
X188324800Y-59045800D02*
X188324800Y-60375800D01*
X185664800Y-69325800D02*
X188324800Y-69325800D01*
%TO.C,J31*%
X179568800Y-61645800D02*
X182228800Y-61645800D01*
X180898800Y-59045800D02*
X182228800Y-59045800D01*
X179568800Y-69325800D02*
X182228800Y-69325800D01*
X182228800Y-61645800D02*
X182228800Y-69325800D01*
X179568800Y-61645800D02*
X179568800Y-69325800D01*
X182228800Y-59045800D02*
X182228800Y-60375800D01*
%TO.C,J32*%
X176132800Y-59045800D02*
X176132800Y-60375800D01*
X176132800Y-61645800D02*
X176132800Y-69325800D01*
X173472800Y-61645800D02*
X173472800Y-69325800D01*
X174802800Y-59045800D02*
X176132800Y-59045800D01*
X173472800Y-61645800D02*
X176132800Y-61645800D01*
X173472800Y-69325800D02*
X176132800Y-69325800D01*
%TO.C,J34*%
X230996800Y-75869800D02*
X230996800Y-83549800D01*
X228336800Y-75869800D02*
X228336800Y-83549800D01*
X228336800Y-83549800D02*
X230996800Y-83549800D01*
X229666800Y-73269800D02*
X230996800Y-73269800D01*
X230996800Y-73269800D02*
X230996800Y-74599800D01*
X228336800Y-75869800D02*
X230996800Y-75869800D01*
%TO.C,J35*%
X222240800Y-75869800D02*
X222240800Y-83549800D01*
X222240800Y-75869800D02*
X224900800Y-75869800D01*
X223570800Y-73269800D02*
X224900800Y-73269800D01*
X224900800Y-73269800D02*
X224900800Y-74599800D01*
X224900800Y-75869800D02*
X224900800Y-83549800D01*
X222240800Y-83549800D02*
X224900800Y-83549800D01*
%TO.C,J36*%
X217474800Y-73269800D02*
X218804800Y-73269800D01*
X216144800Y-75869800D02*
X216144800Y-83549800D01*
X216144800Y-75869800D02*
X218804800Y-75869800D01*
X216144800Y-83549800D02*
X218804800Y-83549800D01*
X218804800Y-75869800D02*
X218804800Y-83549800D01*
X218804800Y-73269800D02*
X218804800Y-74599800D01*
%TO.C,J37*%
X211378800Y-73269800D02*
X212708800Y-73269800D01*
X210048800Y-75869800D02*
X210048800Y-83549800D01*
X210048800Y-83549800D02*
X212708800Y-83549800D01*
X210048800Y-75869800D02*
X212708800Y-75869800D01*
X212708800Y-75869800D02*
X212708800Y-83549800D01*
X212708800Y-73269800D02*
X212708800Y-74599800D01*
%TO.C,J38*%
X203952800Y-75869800D02*
X203952800Y-83549800D01*
X206612800Y-73269800D02*
X206612800Y-74599800D01*
X205282800Y-73269800D02*
X206612800Y-73269800D01*
X206612800Y-75869800D02*
X206612800Y-83549800D01*
X203952800Y-83549800D02*
X206612800Y-83549800D01*
X203952800Y-75869800D02*
X206612800Y-75869800D01*
%TO.C,J39*%
X199186800Y-73269800D02*
X200516800Y-73269800D01*
X200516800Y-75869800D02*
X200516800Y-83549800D01*
X197856800Y-75869800D02*
X197856800Y-83549800D01*
X197856800Y-75869800D02*
X200516800Y-75869800D01*
X197856800Y-83549800D02*
X200516800Y-83549800D01*
X200516800Y-73269800D02*
X200516800Y-74599800D01*
%TO.C,J40*%
X193090800Y-73269800D02*
X194420800Y-73269800D01*
X191760800Y-75869800D02*
X191760800Y-83549800D01*
X194420800Y-75869800D02*
X194420800Y-83549800D01*
X191760800Y-75869800D02*
X194420800Y-75869800D01*
X191760800Y-83549800D02*
X194420800Y-83549800D01*
X194420800Y-73269800D02*
X194420800Y-74599800D01*
%TO.C,J41*%
X185664800Y-75869800D02*
X188324800Y-75869800D01*
X186994800Y-73269800D02*
X188324800Y-73269800D01*
X185664800Y-83549800D02*
X188324800Y-83549800D01*
X188324800Y-75869800D02*
X188324800Y-83549800D01*
X185664800Y-75869800D02*
X185664800Y-83549800D01*
X188324800Y-73269800D02*
X188324800Y-74599800D01*
%TO.C,J42*%
X182228800Y-73269800D02*
X182228800Y-74599800D01*
X182228800Y-75869800D02*
X182228800Y-83549800D01*
X180898800Y-73269800D02*
X182228800Y-73269800D01*
X179568800Y-75869800D02*
X179568800Y-83549800D01*
X179568800Y-83549800D02*
X182228800Y-83549800D01*
X179568800Y-75869800D02*
X182228800Y-75869800D01*
%TO.C,J43*%
X174802800Y-73269800D02*
X176132800Y-73269800D01*
X173472800Y-75869800D02*
X176132800Y-75869800D01*
X173472800Y-83549800D02*
X176132800Y-83549800D01*
X176132800Y-73269800D02*
X176132800Y-74599800D01*
X173472800Y-75869800D02*
X173472800Y-83549800D01*
X176132800Y-75869800D02*
X176132800Y-83549800D01*
%TO.C,J45*%
X229666800Y-87493800D02*
X230996800Y-87493800D01*
X228336800Y-90093800D02*
X230996800Y-90093800D01*
X228336800Y-97773800D02*
X230996800Y-97773800D01*
X230996800Y-90093800D02*
X230996800Y-97773800D01*
X228336800Y-90093800D02*
X228336800Y-97773800D01*
X230996800Y-87493800D02*
X230996800Y-88823800D01*
%TO.C,J46*%
X222240800Y-90093800D02*
X222240800Y-97773800D01*
X224900800Y-87493800D02*
X224900800Y-88823800D01*
X222240800Y-97773800D02*
X224900800Y-97773800D01*
X222240800Y-90093800D02*
X224900800Y-90093800D01*
X224900800Y-90093800D02*
X224900800Y-97773800D01*
X223570800Y-87493800D02*
X224900800Y-87493800D01*
%TO.C,J47*%
X216144800Y-90093800D02*
X218804800Y-90093800D01*
X218804800Y-90093800D02*
X218804800Y-97773800D01*
X216144800Y-97773800D02*
X218804800Y-97773800D01*
X216144800Y-90093800D02*
X216144800Y-97773800D01*
X217474800Y-87493800D02*
X218804800Y-87493800D01*
X218804800Y-87493800D02*
X218804800Y-88823800D01*
%TO.C,J48*%
X210048800Y-97773800D02*
X212708800Y-97773800D01*
X211378800Y-87493800D02*
X212708800Y-87493800D01*
X210048800Y-90093800D02*
X210048800Y-97773800D01*
X212708800Y-87493800D02*
X212708800Y-88823800D01*
X212708800Y-90093800D02*
X212708800Y-97773800D01*
X210048800Y-90093800D02*
X212708800Y-90093800D01*
%TO.C,J49*%
X203952800Y-97773800D02*
X206612800Y-97773800D01*
X206612800Y-90093800D02*
X206612800Y-97773800D01*
X205282800Y-87493800D02*
X206612800Y-87493800D01*
X203952800Y-90093800D02*
X203952800Y-97773800D01*
X206612800Y-87493800D02*
X206612800Y-88823800D01*
X203952800Y-90093800D02*
X206612800Y-90093800D01*
%TO.C,J50*%
X197856800Y-90093800D02*
X200516800Y-90093800D01*
X200516800Y-87493800D02*
X200516800Y-88823800D01*
X200516800Y-90093800D02*
X200516800Y-97773800D01*
X197856800Y-90093800D02*
X197856800Y-97773800D01*
X197856800Y-97773800D02*
X200516800Y-97773800D01*
X199186800Y-87493800D02*
X200516800Y-87493800D01*
%TO.C,J51*%
X191760800Y-97773800D02*
X194420800Y-97773800D01*
X191760800Y-90093800D02*
X191760800Y-97773800D01*
X194420800Y-90093800D02*
X194420800Y-97773800D01*
X191760800Y-90093800D02*
X194420800Y-90093800D01*
X193090800Y-87493800D02*
X194420800Y-87493800D01*
X194420800Y-87493800D02*
X194420800Y-88823800D01*
%TO.C,J52*%
X185664800Y-97773800D02*
X188324800Y-97773800D01*
X185664800Y-90093800D02*
X188324800Y-90093800D01*
X186994800Y-87493800D02*
X188324800Y-87493800D01*
X185664800Y-90093800D02*
X185664800Y-97773800D01*
X188324800Y-90093800D02*
X188324800Y-97773800D01*
X188324800Y-87493800D02*
X188324800Y-88823800D01*
%TO.C,J53*%
X179568800Y-90093800D02*
X179568800Y-97773800D01*
X182228800Y-87493800D02*
X182228800Y-88823800D01*
X179568800Y-90093800D02*
X182228800Y-90093800D01*
X179568800Y-97773800D02*
X182228800Y-97773800D01*
X182228800Y-90093800D02*
X182228800Y-97773800D01*
X180898800Y-87493800D02*
X182228800Y-87493800D01*
%TO.C,J54*%
X173472800Y-97773800D02*
X176132800Y-97773800D01*
X173472800Y-90093800D02*
X176132800Y-90093800D01*
X176132800Y-87493800D02*
X176132800Y-88823800D01*
X176132800Y-90093800D02*
X176132800Y-97773800D01*
X173472800Y-90093800D02*
X173472800Y-97773800D01*
X174802800Y-87493800D02*
X176132800Y-87493800D01*
%TO.C,J56*%
X188518800Y-116001800D02*
X188518800Y-108381800D01*
X188518800Y-108381800D02*
X178358800Y-108381800D01*
X188518800Y-114731800D02*
X178358800Y-114731800D01*
X178358800Y-116001800D02*
X188518800Y-116001800D01*
X178358800Y-108381800D02*
X178358800Y-116001800D01*
%TO.C,REF\u002A\u002A*%
X202234800Y-112445800D02*
X200964800Y-112445800D01*
X199694800Y-112445800D02*
X198424800Y-112445800D01*
X199694800Y-109270800D02*
X199694800Y-112445800D01*
X198424800Y-109270800D02*
X198424800Y-108000800D01*
X206044800Y-112445800D02*
X207314800Y-112445800D01*
X211124800Y-107365800D02*
X210489800Y-107365800D01*
X207949800Y-108635800D02*
X207949800Y-112445800D01*
X200964800Y-112445800D02*
X200964800Y-106730800D01*
X204774800Y-107365800D02*
X204774800Y-112445800D01*
X211124800Y-112445800D02*
X211124800Y-107365800D01*
X197154800Y-109270800D02*
X198424800Y-109270800D01*
X207949800Y-112445800D02*
X209219800Y-112445800D01*
X206044800Y-112445800D02*
X206044800Y-106730800D01*
X206044800Y-106730800D02*
X207314800Y-106730800D01*
X203504800Y-112445800D02*
X203504800Y-110540800D01*
X209219800Y-112445800D02*
X209219800Y-109270800D01*
X203504800Y-109270800D02*
X203504800Y-108000800D01*
X209854800Y-112445800D02*
X211124800Y-112445800D01*
X198424800Y-110540800D02*
X198424800Y-111175800D01*
X202234800Y-109270800D02*
X203504800Y-109270800D01*
X207314800Y-108635800D02*
X207314800Y-112445800D01*
X197154800Y-111175800D02*
X197154800Y-112445800D01*
X203504800Y-110540800D02*
X202234800Y-110540800D01*
X204139800Y-107365800D02*
X204774800Y-107365800D01*
X197154800Y-106730800D02*
X197154800Y-109270800D01*
X195884800Y-112445800D02*
X195884800Y-106730800D01*
X203504800Y-106730800D02*
X204139800Y-106730800D01*
X198424800Y-112445800D02*
X198424800Y-111175800D01*
X198424800Y-108000800D02*
X199694800Y-108000800D01*
X197154800Y-110540800D02*
X197154800Y-111175800D01*
X202234800Y-108000800D02*
X202234800Y-109270800D01*
X195884800Y-106730800D02*
X197154800Y-106730800D01*
X209854800Y-109270800D02*
X209854800Y-112445800D01*
X207314800Y-108635800D02*
X207949800Y-108635800D01*
X197154800Y-110540800D02*
X198424800Y-110540800D01*
X209219800Y-109270800D02*
X209854800Y-109270800D01*
X204774800Y-112445800D02*
X203504800Y-112445800D01*
X199694800Y-108000800D02*
X199694800Y-109270800D01*
X204139800Y-106730800D02*
X204139800Y-107365800D01*
X210489800Y-107365800D02*
X210489800Y-106730800D01*
X202234800Y-110540800D02*
X202234800Y-112445800D01*
X197154800Y-112445800D02*
X195884800Y-112445800D01*
X203504800Y-108000800D02*
X202234800Y-108000800D01*
X200964800Y-106730800D02*
X203504800Y-106730800D01*
X210489800Y-106730800D02*
X207314800Y-106730800D01*
G36*
X202234800Y-112445800D02*
G01*
X200964800Y-112445800D01*
X200964800Y-106730800D01*
X202234800Y-106730800D01*
X202234800Y-112445800D01*
G37*
D14*
X202234800Y-112445800D02*
X200964800Y-112445800D01*
X200964800Y-106730800D01*
X202234800Y-106730800D01*
X202234800Y-112445800D01*
G36*
X209854800Y-109270800D02*
G01*
X209219800Y-109270800D01*
X209219800Y-112445800D01*
X207949800Y-112445800D01*
X207949800Y-106730800D01*
X209854800Y-106730800D01*
X209854800Y-109270800D01*
G37*
X209854800Y-109270800D02*
X209219800Y-109270800D01*
X209219800Y-112445800D01*
X207949800Y-112445800D01*
X207949800Y-106730800D01*
X209854800Y-106730800D01*
X209854800Y-109270800D01*
G36*
X204774800Y-112445800D02*
G01*
X203504800Y-112445800D01*
X203504800Y-108000800D01*
X204774800Y-108000800D01*
X204774800Y-112445800D01*
G37*
X204774800Y-112445800D02*
X203504800Y-112445800D01*
X203504800Y-108000800D01*
X204774800Y-108000800D01*
X204774800Y-112445800D01*
G36*
X210489800Y-107365800D02*
G01*
X211124800Y-107365800D01*
X211124800Y-112445800D01*
X209854800Y-112445800D01*
X209854800Y-106730800D01*
X210489800Y-106730800D01*
X210489800Y-107365800D01*
G37*
X210489800Y-107365800D02*
X211124800Y-107365800D01*
X211124800Y-112445800D01*
X209854800Y-112445800D01*
X209854800Y-106730800D01*
X210489800Y-106730800D01*
X210489800Y-107365800D01*
G36*
X198424800Y-110540800D02*
G01*
X197154800Y-110540800D01*
X197154800Y-109270800D01*
X198424800Y-109270800D01*
X198424800Y-110540800D01*
G37*
X198424800Y-110540800D02*
X197154800Y-110540800D01*
X197154800Y-109270800D01*
X198424800Y-109270800D01*
X198424800Y-110540800D01*
G36*
X199694800Y-112445800D02*
G01*
X198424800Y-112445800D01*
X198424800Y-108000800D01*
X199694800Y-108000800D01*
X199694800Y-112445800D01*
G37*
X199694800Y-112445800D02*
X198424800Y-112445800D01*
X198424800Y-108000800D01*
X199694800Y-108000800D01*
X199694800Y-112445800D01*
G36*
X197154800Y-112445800D02*
G01*
X195884800Y-112445800D01*
X195884800Y-106730800D01*
X197154800Y-106730800D01*
X197154800Y-112445800D01*
G37*
X197154800Y-112445800D02*
X195884800Y-112445800D01*
X195884800Y-106730800D01*
X197154800Y-106730800D01*
X197154800Y-112445800D01*
G36*
X207949800Y-108635800D02*
G01*
X207314800Y-108635800D01*
X207314800Y-112445800D01*
X206044800Y-112445800D01*
X206044800Y-106730800D01*
X207949800Y-106730800D01*
X207949800Y-108635800D01*
G37*
X207949800Y-108635800D02*
X207314800Y-108635800D01*
X207314800Y-112445800D01*
X206044800Y-112445800D01*
X206044800Y-106730800D01*
X207949800Y-106730800D01*
X207949800Y-108635800D01*
G36*
X204139800Y-107365800D02*
G01*
X204774800Y-107365800D01*
X204774800Y-108000800D01*
X202234800Y-108000800D01*
X202234800Y-106730800D01*
X204139800Y-106730800D01*
X204139800Y-107365800D01*
G37*
X204139800Y-107365800D02*
X204774800Y-107365800D01*
X204774800Y-108000800D01*
X202234800Y-108000800D01*
X202234800Y-106730800D01*
X204139800Y-106730800D01*
X204139800Y-107365800D01*
G36*
X203504800Y-110540800D02*
G01*
X202234800Y-110540800D01*
X202234800Y-109270800D01*
X203504800Y-110540800D01*
G37*
X203504800Y-110540800D02*
X202234800Y-110540800D01*
X202234800Y-109270800D01*
X203504800Y-110540800D01*
G36*
X203504800Y-110540800D02*
G01*
X202234800Y-109270800D01*
X203504800Y-109270800D01*
X203504800Y-110540800D01*
G37*
X203504800Y-110540800D02*
X202234800Y-109270800D01*
X203504800Y-109270800D01*
X203504800Y-110540800D01*
D10*
%TO.C,C1*%
X257697248Y-41857600D02*
X258219752Y-41857600D01*
X257697248Y-40387600D02*
X258219752Y-40387600D01*
%TO.C,C2*%
X257701148Y-38381000D02*
X258223652Y-38381000D01*
X257701148Y-39851000D02*
X258223652Y-39851000D01*
%TO.C,C3*%
X262033652Y-38381000D02*
X261511148Y-38381000D01*
X262033652Y-39851000D02*
X261511148Y-39851000D01*
%TO.C,C4*%
X262033652Y-41857600D02*
X261511148Y-41857600D01*
X262033652Y-40387600D02*
X261511148Y-40387600D01*
%TO.C,C5*%
X257726548Y-57910400D02*
X258249052Y-57910400D01*
X257726548Y-56440400D02*
X258249052Y-56440400D01*
%TO.C,C6*%
X257726548Y-54433800D02*
X258249052Y-54433800D01*
X257726548Y-55903800D02*
X258249052Y-55903800D01*
%TO.C,C7*%
X262033652Y-55903800D02*
X261511148Y-55903800D01*
X262033652Y-54433800D02*
X261511148Y-54433800D01*
%TO.C,C8*%
X262033652Y-56440400D02*
X261511148Y-56440400D01*
X262033652Y-57910400D02*
X261511148Y-57910400D01*
%TO.C,C9*%
X257699648Y-74057900D02*
X258222152Y-74057900D01*
X257699648Y-75527900D02*
X258222152Y-75527900D01*
%TO.C,C10*%
X257701148Y-73531400D02*
X258223652Y-73531400D01*
X257701148Y-72061400D02*
X258223652Y-72061400D01*
%TO.C,C11*%
X262033652Y-72061400D02*
X261511148Y-72061400D01*
X262033652Y-73531400D02*
X261511148Y-73531400D01*
%TO.C,C12*%
X262033652Y-74068000D02*
X261511148Y-74068000D01*
X262033652Y-75538000D02*
X261511148Y-75538000D01*
%TO.C,C13*%
X257701148Y-90705000D02*
X258223652Y-90705000D01*
X257701148Y-92175000D02*
X258223652Y-92175000D01*
%TO.C,C14*%
X257701148Y-90168400D02*
X258223652Y-90168400D01*
X257701148Y-88698400D02*
X258223652Y-88698400D01*
%TO.C,C15*%
X262033652Y-90168400D02*
X261511148Y-90168400D01*
X262033652Y-88698400D02*
X261511148Y-88698400D01*
%TO.C,C16*%
X262033652Y-90705000D02*
X261511148Y-90705000D01*
X262033652Y-92175000D02*
X261511148Y-92175000D01*
%TO.C,C17*%
X257701148Y-108761200D02*
X258223652Y-108761200D01*
X257701148Y-107291200D02*
X258223652Y-107291200D01*
%TO.C,C18*%
X257707848Y-106755500D02*
X258230352Y-106755500D01*
X257707848Y-105285500D02*
X258230352Y-105285500D01*
%TO.C,C19*%
X262033652Y-105284600D02*
X261511148Y-105284600D01*
X262033652Y-106754600D02*
X261511148Y-106754600D01*
%TO.C,C20*%
X262033652Y-107291200D02*
X261511148Y-107291200D01*
X262033652Y-108761200D02*
X261511148Y-108761200D01*
%TO.C,J57*%
X188518800Y-28422600D02*
X188518800Y-20802600D01*
X178358800Y-28422600D02*
X188518800Y-28422600D01*
X178358800Y-22072600D02*
X188518800Y-22072600D01*
X188518800Y-20802600D02*
X178358800Y-20802600D01*
X178358800Y-20802600D02*
X178358800Y-28422600D01*
%TO.C,R1*%
X245667264Y-34364600D02*
X245213136Y-34364600D01*
X245667264Y-32894600D02*
X245213136Y-32894600D01*
%TO.C,R2*%
X246022864Y-51128600D02*
X245568736Y-51128600D01*
X246022864Y-49658600D02*
X245568736Y-49658600D01*
%TO.C,R3*%
X245768864Y-66473400D02*
X245314736Y-66473400D01*
X245768864Y-67943400D02*
X245314736Y-67943400D01*
%TO.C,R4*%
X245921264Y-83212000D02*
X245467136Y-83212000D01*
X245921264Y-84682000D02*
X245467136Y-84682000D01*
%TO.C,R5*%
X245921264Y-101446000D02*
X245467136Y-101446000D01*
X245921264Y-99976000D02*
X245467136Y-99976000D01*
D15*
%TO.C,U1*%
X253466600Y-29819600D02*
X250926600Y-29819600D01*
D16*
X272516600Y-42011600D02*
X247878600Y-42011600D01*
D15*
X248386600Y-39979600D02*
X253466600Y-39979600D01*
X253466600Y-39979600D02*
X253466600Y-29819600D01*
D16*
X247878600Y-42011600D02*
X247878600Y-27787600D01*
D15*
X248386600Y-29819600D02*
X248386600Y-32359600D01*
X250926600Y-29819600D02*
X248386600Y-29819600D01*
D16*
X247878600Y-27787600D02*
X272516600Y-27787600D01*
D15*
X248386600Y-32359600D02*
X248386600Y-39979600D01*
D16*
X272516600Y-27787600D02*
X272516600Y-42011600D01*
%TO.C,U2*%
X247878600Y-44557950D02*
X272516600Y-44557950D01*
D15*
X253466600Y-56749950D02*
X253466600Y-46589950D01*
D16*
X247878600Y-58781950D02*
X247878600Y-44557950D01*
D15*
X248386600Y-56749950D02*
X253466600Y-56749950D01*
X253466600Y-46589950D02*
X250926600Y-46589950D01*
D16*
X272516600Y-58781950D02*
X247878600Y-58781950D01*
D15*
X248386600Y-46589950D02*
X248386600Y-49129950D01*
D16*
X272516600Y-44557950D02*
X272516600Y-58781950D01*
D15*
X250926600Y-46589950D02*
X248386600Y-46589950D01*
X248386600Y-49129950D02*
X248386600Y-56749950D01*
D16*
%TO.C,U3*%
X272516600Y-61328300D02*
X272516600Y-75552300D01*
D15*
X253466600Y-73520300D02*
X253466600Y-63360300D01*
D16*
X247878600Y-61328300D02*
X272516600Y-61328300D01*
X247878600Y-75552300D02*
X247878600Y-61328300D01*
D15*
X248386600Y-65900300D02*
X248386600Y-73520300D01*
X250926600Y-63360300D02*
X248386600Y-63360300D01*
X248386600Y-63360300D02*
X248386600Y-65900300D01*
X248386600Y-73520300D02*
X253466600Y-73520300D01*
X253466600Y-63360300D02*
X250926600Y-63360300D01*
D16*
X272516600Y-75552300D02*
X247878600Y-75552300D01*
%TO.C,U4*%
X272516600Y-92322650D02*
X247878600Y-92322650D01*
D15*
X248386600Y-90290650D02*
X253466600Y-90290650D01*
X253466600Y-80130650D02*
X250926600Y-80130650D01*
D16*
X272516600Y-78098650D02*
X272516600Y-92322650D01*
D15*
X248386600Y-82670650D02*
X248386600Y-90290650D01*
D16*
X247878600Y-92322650D02*
X247878600Y-78098650D01*
D15*
X253466600Y-90290650D02*
X253466600Y-80130650D01*
X248386600Y-80130650D02*
X248386600Y-82670650D01*
X250926600Y-80130650D02*
X248386600Y-80130650D01*
D16*
X247878600Y-78098650D02*
X272516600Y-78098650D01*
%TO.C,U5*%
X272516600Y-94869000D02*
X272516600Y-109093000D01*
D15*
X248386600Y-96901000D02*
X248386600Y-99441000D01*
D16*
X247878600Y-94869000D02*
X272516600Y-94869000D01*
D15*
X253466600Y-96901000D02*
X250926600Y-96901000D01*
D16*
X272516600Y-109093000D02*
X247878600Y-109093000D01*
X247878600Y-109093000D02*
X247878600Y-94869000D01*
D15*
X253466600Y-107061000D02*
X253466600Y-96901000D01*
X250926600Y-96901000D02*
X248386600Y-96901000D01*
X248386600Y-107061000D02*
X253466600Y-107061000D01*
X248386600Y-99441000D02*
X248386600Y-107061000D01*
D10*
%TO.C,U6*%
X260532800Y-37877800D02*
X260532800Y-36617800D01*
X256772800Y-37877800D02*
X260532800Y-37877800D01*
X254522800Y-31057800D02*
X260532800Y-31057800D01*
X260532800Y-31057800D02*
X260532800Y-32317800D01*
%TO.C,U7*%
X256823600Y-53930600D02*
X260583600Y-53930600D01*
X260583600Y-47110600D02*
X260583600Y-48370600D01*
X254573600Y-47110600D02*
X260583600Y-47110600D01*
X260583600Y-53930600D02*
X260583600Y-52670600D01*
%TO.C,U8*%
X254573600Y-64738200D02*
X260583600Y-64738200D01*
X256823600Y-71558200D02*
X260583600Y-71558200D01*
X260583600Y-64738200D02*
X260583600Y-65998200D01*
X260583600Y-71558200D02*
X260583600Y-70298200D01*
%TO.C,U9*%
X260558200Y-88195200D02*
X260558200Y-86935200D01*
X260558200Y-81375200D02*
X260558200Y-82635200D01*
X254548200Y-81375200D02*
X260558200Y-81375200D01*
X256798200Y-88195200D02*
X260558200Y-88195200D01*
%TO.C,U10*%
X254472000Y-97986800D02*
X260482000Y-97986800D01*
X260482000Y-97986800D02*
X260482000Y-99246800D01*
X256722000Y-104806800D02*
X260482000Y-104806800D01*
X260482000Y-104806800D02*
X260482000Y-103546800D01*
%TD*%
D17*
%TO.C,U1*%
X249656600Y-31089600D03*
D18*
X252196600Y-31089600D03*
X249656600Y-33629600D03*
X252196600Y-33629600D03*
X249656600Y-36169600D03*
X252196600Y-36169600D03*
X249656600Y-38709600D03*
X252196600Y-38709600D03*
%TD*%
D17*
%TO.C,U2*%
X249656600Y-47859950D03*
D18*
X252196600Y-47859950D03*
X249656600Y-50399950D03*
X252196600Y-50399950D03*
X249656600Y-52939950D03*
X252196600Y-52939950D03*
X249656600Y-55479950D03*
X252196600Y-55479950D03*
%TD*%
D17*
%TO.C,U3*%
X249656600Y-64630300D03*
D18*
X252196600Y-64630300D03*
X249656600Y-67170300D03*
X252196600Y-67170300D03*
X249656600Y-69710300D03*
X252196600Y-69710300D03*
X249656600Y-72250300D03*
X252196600Y-72250300D03*
%TD*%
D17*
%TO.C,U4*%
X249656600Y-81400650D03*
D18*
X252196600Y-81400650D03*
X249656600Y-83940650D03*
X252196600Y-83940650D03*
X249656600Y-86480650D03*
X252196600Y-86480650D03*
X249656600Y-89020650D03*
X252196600Y-89020650D03*
%TD*%
D17*
%TO.C,U5*%
X249656600Y-98171000D03*
D18*
X252196600Y-98171000D03*
X249656600Y-100711000D03*
X252196600Y-100711000D03*
X249656600Y-103251000D03*
X252196600Y-103251000D03*
X249656600Y-105791000D03*
X252196600Y-105791000D03*
%TD*%
M02*
