%TF.GenerationSoftware,KiCad,Pcbnew,(6.0.4)*%
%TF.CreationDate,2022-04-03T13:08:36+08:00*%
%TF.ProjectId,Main_Board_Master,4d61696e-5f42-46f6-9172-645f4d617374,rev?*%
%TF.SameCoordinates,Original*%
%TF.FileFunction,Copper,L2,Bot*%
%TF.FilePolarity,Positive*%
%FSLAX46Y46*%
G04 Gerber Fmt 4.6, Leading zero omitted, Abs format (unit mm)*
G04 Created by KiCad (PCBNEW (6.0.4)) date 2022-04-03 13:08:36*
%MOMM*%
%LPD*%
G01*
G04 APERTURE LIST*
%TA.AperFunction,ComponentPad*%
%ADD10R,1.700000X1.700000*%
%TD*%
%TA.AperFunction,ComponentPad*%
%ADD11O,1.700000X1.700000*%
%TD*%
%TA.AperFunction,ComponentPad*%
%ADD12R,3.000000X3.000000*%
%TD*%
%TA.AperFunction,ComponentPad*%
%ADD13C,3.000000*%
%TD*%
%TA.AperFunction,ComponentPad*%
%ADD14R,1.727200X1.727200*%
%TD*%
%TA.AperFunction,ComponentPad*%
%ADD15O,1.727200X1.727200*%
%TD*%
%TA.AperFunction,ViaPad*%
%ADD16C,3.200000*%
%TD*%
%TA.AperFunction,ViaPad*%
%ADD17C,0.800000*%
%TD*%
%TA.AperFunction,Conductor*%
%ADD18C,1.000000*%
%TD*%
G04 APERTURE END LIST*
D10*
%TO.P,J1,1*%
%TO.N,GND*%
X229666800Y-31927800D03*
D11*
%TO.P,J1,2*%
%TO.N,VCC*%
X229666800Y-34467800D03*
%TO.P,J1,3*%
%TO.N,ESP01_01_SDA*%
X229666800Y-37007800D03*
%TO.P,J1,4*%
%TO.N,ESP01_01_SCL*%
X229666800Y-39547800D03*
%TD*%
D10*
%TO.P,J2,1*%
%TO.N,GND*%
X223570800Y-31927800D03*
D11*
%TO.P,J2,2*%
%TO.N,VCC*%
X223570800Y-34467800D03*
%TO.P,J2,3*%
%TO.N,ESP01_01_SDA*%
X223570800Y-37007800D03*
%TO.P,J2,4*%
%TO.N,ESP01_01_SCL*%
X223570800Y-39547800D03*
%TD*%
D10*
%TO.P,J3,1*%
%TO.N,GND*%
X217474800Y-31927800D03*
D11*
%TO.P,J3,2*%
%TO.N,VCC*%
X217474800Y-34467800D03*
%TO.P,J3,3*%
%TO.N,ESP01_01_SDA*%
X217474800Y-37007800D03*
%TO.P,J3,4*%
%TO.N,ESP01_01_SCL*%
X217474800Y-39547800D03*
%TD*%
D10*
%TO.P,J4,1*%
%TO.N,GND*%
X211378800Y-31927800D03*
D11*
%TO.P,J4,2*%
%TO.N,VCC*%
X211378800Y-34467800D03*
%TO.P,J4,3*%
%TO.N,ESP01_01_SDA*%
X211378800Y-37007800D03*
%TO.P,J4,4*%
%TO.N,ESP01_01_SCL*%
X211378800Y-39547800D03*
%TD*%
D10*
%TO.P,J5,1*%
%TO.N,GND*%
X205282800Y-31927800D03*
D11*
%TO.P,J5,2*%
%TO.N,VCC*%
X205282800Y-34467800D03*
%TO.P,J5,3*%
%TO.N,ESP01_01_SDA*%
X205282800Y-37007800D03*
%TO.P,J5,4*%
%TO.N,ESP01_01_SCL*%
X205282800Y-39547800D03*
%TD*%
D10*
%TO.P,J6,1*%
%TO.N,GND*%
X199186800Y-31927800D03*
D11*
%TO.P,J6,2*%
%TO.N,VCC*%
X199186800Y-34467800D03*
%TO.P,J6,3*%
%TO.N,ESP01_01_SDA*%
X199186800Y-37007800D03*
%TO.P,J6,4*%
%TO.N,ESP01_01_SCL*%
X199186800Y-39547800D03*
%TD*%
D10*
%TO.P,J7,1*%
%TO.N,GND*%
X193090800Y-31927800D03*
D11*
%TO.P,J7,2*%
%TO.N,VCC*%
X193090800Y-34467800D03*
%TO.P,J7,3*%
%TO.N,ESP01_01_SDA*%
X193090800Y-37007800D03*
%TO.P,J7,4*%
%TO.N,ESP01_01_SCL*%
X193090800Y-39547800D03*
%TD*%
D10*
%TO.P,J8,1*%
%TO.N,GND*%
X186994800Y-31927800D03*
D11*
%TO.P,J8,2*%
%TO.N,VCC*%
X186994800Y-34467800D03*
%TO.P,J8,3*%
%TO.N,ESP01_01_SDA*%
X186994800Y-37007800D03*
%TO.P,J8,4*%
%TO.N,ESP01_01_SCL*%
X186994800Y-39547800D03*
%TD*%
D10*
%TO.P,J9,1*%
%TO.N,GND*%
X180898800Y-31927800D03*
D11*
%TO.P,J9,2*%
%TO.N,VCC*%
X180898800Y-34467800D03*
%TO.P,J9,3*%
%TO.N,ESP01_01_SDA*%
X180898800Y-37007800D03*
%TO.P,J9,4*%
%TO.N,ESP01_01_SCL*%
X180898800Y-39547800D03*
%TD*%
D10*
%TO.P,J10,1*%
%TO.N,GND*%
X174802800Y-31927800D03*
D11*
%TO.P,J10,2*%
%TO.N,VCC*%
X174802800Y-34467800D03*
%TO.P,J10,3*%
%TO.N,ESP01_01_SDA*%
X174802800Y-37007800D03*
%TO.P,J10,4*%
%TO.N,ESP01_01_SCL*%
X174802800Y-39547800D03*
%TD*%
D10*
%TO.P,J12,1*%
%TO.N,GND*%
X229666800Y-46151800D03*
D11*
%TO.P,J12,2*%
%TO.N,VCC*%
X229666800Y-48691800D03*
%TO.P,J12,3*%
%TO.N,ESP01_02_SDA*%
X229666800Y-51231800D03*
%TO.P,J12,4*%
%TO.N,ESP01_02_SCL*%
X229666800Y-53771800D03*
%TD*%
D10*
%TO.P,J13,1*%
%TO.N,GND*%
X223570800Y-46151800D03*
D11*
%TO.P,J13,2*%
%TO.N,VCC*%
X223570800Y-48691800D03*
%TO.P,J13,3*%
%TO.N,ESP01_02_SDA*%
X223570800Y-51231800D03*
%TO.P,J13,4*%
%TO.N,ESP01_02_SCL*%
X223570800Y-53771800D03*
%TD*%
D10*
%TO.P,J14,1*%
%TO.N,GND*%
X217474800Y-46151800D03*
D11*
%TO.P,J14,2*%
%TO.N,VCC*%
X217474800Y-48691800D03*
%TO.P,J14,3*%
%TO.N,ESP01_02_SDA*%
X217474800Y-51231800D03*
%TO.P,J14,4*%
%TO.N,ESP01_02_SCL*%
X217474800Y-53771800D03*
%TD*%
D10*
%TO.P,J15,1*%
%TO.N,GND*%
X211378800Y-46151800D03*
D11*
%TO.P,J15,2*%
%TO.N,VCC*%
X211378800Y-48691800D03*
%TO.P,J15,3*%
%TO.N,ESP01_02_SDA*%
X211378800Y-51231800D03*
%TO.P,J15,4*%
%TO.N,ESP01_02_SCL*%
X211378800Y-53771800D03*
%TD*%
D10*
%TO.P,J16,1*%
%TO.N,GND*%
X205282800Y-46151800D03*
D11*
%TO.P,J16,2*%
%TO.N,VCC*%
X205282800Y-48691800D03*
%TO.P,J16,3*%
%TO.N,ESP01_02_SDA*%
X205282800Y-51231800D03*
%TO.P,J16,4*%
%TO.N,ESP01_02_SCL*%
X205282800Y-53771800D03*
%TD*%
D10*
%TO.P,J17,1*%
%TO.N,GND*%
X199186800Y-46151800D03*
D11*
%TO.P,J17,2*%
%TO.N,VCC*%
X199186800Y-48691800D03*
%TO.P,J17,3*%
%TO.N,ESP01_02_SDA*%
X199186800Y-51231800D03*
%TO.P,J17,4*%
%TO.N,ESP01_02_SCL*%
X199186800Y-53771800D03*
%TD*%
D10*
%TO.P,J18,1*%
%TO.N,GND*%
X193090800Y-46151800D03*
D11*
%TO.P,J18,2*%
%TO.N,VCC*%
X193090800Y-48691800D03*
%TO.P,J18,3*%
%TO.N,ESP01_02_SDA*%
X193090800Y-51231800D03*
%TO.P,J18,4*%
%TO.N,ESP01_02_SCL*%
X193090800Y-53771800D03*
%TD*%
D10*
%TO.P,J19,1*%
%TO.N,GND*%
X186994800Y-46151800D03*
D11*
%TO.P,J19,2*%
%TO.N,VCC*%
X186994800Y-48691800D03*
%TO.P,J19,3*%
%TO.N,ESP01_02_SDA*%
X186994800Y-51231800D03*
%TO.P,J19,4*%
%TO.N,ESP01_02_SCL*%
X186994800Y-53771800D03*
%TD*%
D10*
%TO.P,J20,1*%
%TO.N,GND*%
X180898800Y-46151800D03*
D11*
%TO.P,J20,2*%
%TO.N,VCC*%
X180898800Y-48691800D03*
%TO.P,J20,3*%
%TO.N,ESP01_02_SDA*%
X180898800Y-51231800D03*
%TO.P,J20,4*%
%TO.N,ESP01_02_SCL*%
X180898800Y-53771800D03*
%TD*%
D10*
%TO.P,J21,1*%
%TO.N,GND*%
X174802800Y-46151800D03*
D11*
%TO.P,J21,2*%
%TO.N,VCC*%
X174802800Y-48691800D03*
%TO.P,J21,3*%
%TO.N,ESP01_02_SDA*%
X174802800Y-51231800D03*
%TO.P,J21,4*%
%TO.N,ESP01_02_SCL*%
X174802800Y-53771800D03*
%TD*%
D10*
%TO.P,J23,1*%
%TO.N,GND*%
X229666800Y-60375800D03*
D11*
%TO.P,J23,2*%
%TO.N,VCC*%
X229666800Y-62915800D03*
%TO.P,J23,3*%
%TO.N,ESP01_03_SDA*%
X229666800Y-65455800D03*
%TO.P,J23,4*%
%TO.N,ESP01_03_SCL*%
X229666800Y-67995800D03*
%TD*%
D10*
%TO.P,J24,1*%
%TO.N,GND*%
X223570800Y-60375800D03*
D11*
%TO.P,J24,2*%
%TO.N,VCC*%
X223570800Y-62915800D03*
%TO.P,J24,3*%
%TO.N,ESP01_03_SDA*%
X223570800Y-65455800D03*
%TO.P,J24,4*%
%TO.N,ESP01_03_SCL*%
X223570800Y-67995800D03*
%TD*%
D10*
%TO.P,J25,1*%
%TO.N,GND*%
X217474800Y-60375800D03*
D11*
%TO.P,J25,2*%
%TO.N,VCC*%
X217474800Y-62915800D03*
%TO.P,J25,3*%
%TO.N,ESP01_03_SDA*%
X217474800Y-65455800D03*
%TO.P,J25,4*%
%TO.N,ESP01_03_SCL*%
X217474800Y-67995800D03*
%TD*%
D10*
%TO.P,J26,1*%
%TO.N,GND*%
X211378800Y-60375800D03*
D11*
%TO.P,J26,2*%
%TO.N,VCC*%
X211378800Y-62915800D03*
%TO.P,J26,3*%
%TO.N,ESP01_03_SDA*%
X211378800Y-65455800D03*
%TO.P,J26,4*%
%TO.N,ESP01_03_SCL*%
X211378800Y-67995800D03*
%TD*%
D10*
%TO.P,J27,1*%
%TO.N,GND*%
X205282800Y-60375800D03*
D11*
%TO.P,J27,2*%
%TO.N,VCC*%
X205282800Y-62915800D03*
%TO.P,J27,3*%
%TO.N,ESP01_03_SDA*%
X205282800Y-65455800D03*
%TO.P,J27,4*%
%TO.N,ESP01_03_SCL*%
X205282800Y-67995800D03*
%TD*%
D10*
%TO.P,J28,1*%
%TO.N,GND*%
X199186800Y-60375800D03*
D11*
%TO.P,J28,2*%
%TO.N,VCC*%
X199186800Y-62915800D03*
%TO.P,J28,3*%
%TO.N,ESP01_03_SDA*%
X199186800Y-65455800D03*
%TO.P,J28,4*%
%TO.N,ESP01_03_SCL*%
X199186800Y-67995800D03*
%TD*%
D10*
%TO.P,J29,1*%
%TO.N,GND*%
X193090800Y-60375800D03*
D11*
%TO.P,J29,2*%
%TO.N,VCC*%
X193090800Y-62915800D03*
%TO.P,J29,3*%
%TO.N,ESP01_03_SDA*%
X193090800Y-65455800D03*
%TO.P,J29,4*%
%TO.N,ESP01_03_SCL*%
X193090800Y-67995800D03*
%TD*%
D10*
%TO.P,J30,1*%
%TO.N,GND*%
X186994800Y-60375800D03*
D11*
%TO.P,J30,2*%
%TO.N,VCC*%
X186994800Y-62915800D03*
%TO.P,J30,3*%
%TO.N,ESP01_03_SDA*%
X186994800Y-65455800D03*
%TO.P,J30,4*%
%TO.N,ESP01_03_SCL*%
X186994800Y-67995800D03*
%TD*%
D10*
%TO.P,J31,1*%
%TO.N,GND*%
X180898800Y-60375800D03*
D11*
%TO.P,J31,2*%
%TO.N,VCC*%
X180898800Y-62915800D03*
%TO.P,J31,3*%
%TO.N,ESP01_03_SDA*%
X180898800Y-65455800D03*
%TO.P,J31,4*%
%TO.N,ESP01_03_SCL*%
X180898800Y-67995800D03*
%TD*%
D10*
%TO.P,J32,1*%
%TO.N,GND*%
X174802800Y-60375800D03*
D11*
%TO.P,J32,2*%
%TO.N,VCC*%
X174802800Y-62915800D03*
%TO.P,J32,3*%
%TO.N,ESP01_03_SDA*%
X174802800Y-65455800D03*
%TO.P,J32,4*%
%TO.N,ESP01_03_SCL*%
X174802800Y-67995800D03*
%TD*%
D10*
%TO.P,J34,1*%
%TO.N,GND*%
X229666800Y-74599800D03*
D11*
%TO.P,J34,2*%
%TO.N,VCC*%
X229666800Y-77139800D03*
%TO.P,J34,3*%
%TO.N,ESP01_04_SDA*%
X229666800Y-79679800D03*
%TO.P,J34,4*%
%TO.N,ESP01_04_SCL*%
X229666800Y-82219800D03*
%TD*%
D10*
%TO.P,J35,1*%
%TO.N,GND*%
X223570800Y-74599800D03*
D11*
%TO.P,J35,2*%
%TO.N,VCC*%
X223570800Y-77139800D03*
%TO.P,J35,3*%
%TO.N,ESP01_04_SDA*%
X223570800Y-79679800D03*
%TO.P,J35,4*%
%TO.N,ESP01_04_SCL*%
X223570800Y-82219800D03*
%TD*%
D10*
%TO.P,J36,1*%
%TO.N,GND*%
X217474800Y-74599800D03*
D11*
%TO.P,J36,2*%
%TO.N,VCC*%
X217474800Y-77139800D03*
%TO.P,J36,3*%
%TO.N,ESP01_04_SDA*%
X217474800Y-79679800D03*
%TO.P,J36,4*%
%TO.N,ESP01_04_SCL*%
X217474800Y-82219800D03*
%TD*%
D10*
%TO.P,J37,1*%
%TO.N,GND*%
X211378800Y-74599800D03*
D11*
%TO.P,J37,2*%
%TO.N,VCC*%
X211378800Y-77139800D03*
%TO.P,J37,3*%
%TO.N,ESP01_04_SDA*%
X211378800Y-79679800D03*
%TO.P,J37,4*%
%TO.N,ESP01_04_SCL*%
X211378800Y-82219800D03*
%TD*%
D10*
%TO.P,J38,1*%
%TO.N,GND*%
X205282800Y-74599800D03*
D11*
%TO.P,J38,2*%
%TO.N,VCC*%
X205282800Y-77139800D03*
%TO.P,J38,3*%
%TO.N,ESP01_04_SDA*%
X205282800Y-79679800D03*
%TO.P,J38,4*%
%TO.N,ESP01_04_SCL*%
X205282800Y-82219800D03*
%TD*%
D10*
%TO.P,J39,1*%
%TO.N,GND*%
X199186800Y-74599800D03*
D11*
%TO.P,J39,2*%
%TO.N,VCC*%
X199186800Y-77139800D03*
%TO.P,J39,3*%
%TO.N,ESP01_04_SDA*%
X199186800Y-79679800D03*
%TO.P,J39,4*%
%TO.N,ESP01_04_SCL*%
X199186800Y-82219800D03*
%TD*%
D10*
%TO.P,J40,1*%
%TO.N,GND*%
X193090800Y-74599800D03*
D11*
%TO.P,J40,2*%
%TO.N,VCC*%
X193090800Y-77139800D03*
%TO.P,J40,3*%
%TO.N,ESP01_04_SDA*%
X193090800Y-79679800D03*
%TO.P,J40,4*%
%TO.N,ESP01_04_SCL*%
X193090800Y-82219800D03*
%TD*%
D10*
%TO.P,J41,1*%
%TO.N,GND*%
X186994800Y-74599800D03*
D11*
%TO.P,J41,2*%
%TO.N,VCC*%
X186994800Y-77139800D03*
%TO.P,J41,3*%
%TO.N,ESP01_04_SDA*%
X186994800Y-79679800D03*
%TO.P,J41,4*%
%TO.N,ESP01_04_SCL*%
X186994800Y-82219800D03*
%TD*%
D10*
%TO.P,J42,1*%
%TO.N,GND*%
X180898800Y-74599800D03*
D11*
%TO.P,J42,2*%
%TO.N,VCC*%
X180898800Y-77139800D03*
%TO.P,J42,3*%
%TO.N,ESP01_04_SDA*%
X180898800Y-79679800D03*
%TO.P,J42,4*%
%TO.N,ESP01_04_SCL*%
X180898800Y-82219800D03*
%TD*%
D10*
%TO.P,J43,1*%
%TO.N,GND*%
X174802800Y-74599800D03*
D11*
%TO.P,J43,2*%
%TO.N,VCC*%
X174802800Y-77139800D03*
%TO.P,J43,3*%
%TO.N,ESP01_04_SDA*%
X174802800Y-79679800D03*
%TO.P,J43,4*%
%TO.N,ESP01_04_SCL*%
X174802800Y-82219800D03*
%TD*%
D10*
%TO.P,J45,1*%
%TO.N,GND*%
X229666800Y-88823800D03*
D11*
%TO.P,J45,2*%
%TO.N,VCC*%
X229666800Y-91363800D03*
%TO.P,J45,3*%
%TO.N,ESP01_05_SDA*%
X229666800Y-93903800D03*
%TO.P,J45,4*%
%TO.N,ESP01_05_SCL*%
X229666800Y-96443800D03*
%TD*%
D10*
%TO.P,J46,1*%
%TO.N,GND*%
X223570800Y-88823800D03*
D11*
%TO.P,J46,2*%
%TO.N,VCC*%
X223570800Y-91363800D03*
%TO.P,J46,3*%
%TO.N,ESP01_05_SDA*%
X223570800Y-93903800D03*
%TO.P,J46,4*%
%TO.N,ESP01_05_SCL*%
X223570800Y-96443800D03*
%TD*%
D10*
%TO.P,J47,1*%
%TO.N,GND*%
X217474800Y-88823800D03*
D11*
%TO.P,J47,2*%
%TO.N,VCC*%
X217474800Y-91363800D03*
%TO.P,J47,3*%
%TO.N,ESP01_05_SDA*%
X217474800Y-93903800D03*
%TO.P,J47,4*%
%TO.N,ESP01_05_SCL*%
X217474800Y-96443800D03*
%TD*%
D10*
%TO.P,J48,1*%
%TO.N,GND*%
X211378800Y-88823800D03*
D11*
%TO.P,J48,2*%
%TO.N,VCC*%
X211378800Y-91363800D03*
%TO.P,J48,3*%
%TO.N,ESP01_05_SDA*%
X211378800Y-93903800D03*
%TO.P,J48,4*%
%TO.N,ESP01_05_SCL*%
X211378800Y-96443800D03*
%TD*%
D10*
%TO.P,J49,1*%
%TO.N,GND*%
X205282800Y-88823800D03*
D11*
%TO.P,J49,2*%
%TO.N,VCC*%
X205282800Y-91363800D03*
%TO.P,J49,3*%
%TO.N,ESP01_05_SDA*%
X205282800Y-93903800D03*
%TO.P,J49,4*%
%TO.N,ESP01_05_SCL*%
X205282800Y-96443800D03*
%TD*%
D10*
%TO.P,J50,1*%
%TO.N,GND*%
X199186800Y-88823800D03*
D11*
%TO.P,J50,2*%
%TO.N,VCC*%
X199186800Y-91363800D03*
%TO.P,J50,3*%
%TO.N,ESP01_05_SDA*%
X199186800Y-93903800D03*
%TO.P,J50,4*%
%TO.N,ESP01_05_SCL*%
X199186800Y-96443800D03*
%TD*%
D10*
%TO.P,J51,1*%
%TO.N,GND*%
X193090800Y-88823800D03*
D11*
%TO.P,J51,2*%
%TO.N,VCC*%
X193090800Y-91363800D03*
%TO.P,J51,3*%
%TO.N,ESP01_05_SDA*%
X193090800Y-93903800D03*
%TO.P,J51,4*%
%TO.N,ESP01_05_SCL*%
X193090800Y-96443800D03*
%TD*%
D10*
%TO.P,J52,1*%
%TO.N,GND*%
X186994800Y-88823800D03*
D11*
%TO.P,J52,2*%
%TO.N,VCC*%
X186994800Y-91363800D03*
%TO.P,J52,3*%
%TO.N,ESP01_05_SDA*%
X186994800Y-93903800D03*
%TO.P,J52,4*%
%TO.N,ESP01_05_SCL*%
X186994800Y-96443800D03*
%TD*%
D10*
%TO.P,J53,1*%
%TO.N,GND*%
X180898800Y-88823800D03*
D11*
%TO.P,J53,2*%
%TO.N,VCC*%
X180898800Y-91363800D03*
%TO.P,J53,3*%
%TO.N,ESP01_05_SDA*%
X180898800Y-93903800D03*
%TO.P,J53,4*%
%TO.N,ESP01_05_SCL*%
X180898800Y-96443800D03*
%TD*%
D10*
%TO.P,J54,1*%
%TO.N,GND*%
X174802800Y-88823800D03*
D11*
%TO.P,J54,2*%
%TO.N,VCC*%
X174802800Y-91363800D03*
%TO.P,J54,3*%
%TO.N,ESP01_05_SDA*%
X174802800Y-93903800D03*
%TO.P,J54,4*%
%TO.N,ESP01_05_SCL*%
X174802800Y-96443800D03*
%TD*%
D12*
%TO.P,J56,1*%
%TO.N,GND*%
X180898800Y-112191800D03*
D13*
%TO.P,J56,2*%
%TO.N,VCC*%
X185978800Y-112191800D03*
%TD*%
D12*
%TO.P,J57,1*%
%TO.N,GND*%
X185978800Y-24612600D03*
D13*
%TO.P,J57,2*%
%TO.N,VCC*%
X180898800Y-24612600D03*
%TD*%
D14*
%TO.P,U1,1*%
%TO.N,Net-(U1-Pad1)*%
X249656600Y-31089600D03*
D15*
%TO.P,U1,2*%
%TO.N,GND*%
X252196600Y-31089600D03*
%TO.P,U1,3*%
%TO.N,Net-(R1-Pad1)*%
X249656600Y-33629600D03*
%TO.P,U1,4*%
%TO.N,ESP01_01_SDA*%
X252196600Y-33629600D03*
%TO.P,U1,5*%
%TO.N,Net-(U1-Pad5)*%
X249656600Y-36169600D03*
%TO.P,U1,6*%
%TO.N,ESP01_01_SCL*%
X252196600Y-36169600D03*
%TO.P,U1,7*%
%TO.N,ESP01_~{3.3V}_01*%
X249656600Y-38709600D03*
%TO.P,U1,8*%
%TO.N,Net-(U1-Pad8)*%
X252196600Y-38709600D03*
%TD*%
D14*
%TO.P,U2,1*%
%TO.N,Net-(U2-Pad1)*%
X249656600Y-47859950D03*
D15*
%TO.P,U2,2*%
%TO.N,GND*%
X252196600Y-47859950D03*
%TO.P,U2,3*%
%TO.N,Net-(R2-Pad1)*%
X249656600Y-50399950D03*
%TO.P,U2,4*%
%TO.N,ESP01_02_SDA*%
X252196600Y-50399950D03*
%TO.P,U2,5*%
%TO.N,Net-(U2-Pad5)*%
X249656600Y-52939950D03*
%TO.P,U2,6*%
%TO.N,ESP01_02_SCL*%
X252196600Y-52939950D03*
%TO.P,U2,7*%
%TO.N,ESP01_~{3.3V}_02*%
X249656600Y-55479950D03*
%TO.P,U2,8*%
%TO.N,Net-(U2-Pad8)*%
X252196600Y-55479950D03*
%TD*%
D14*
%TO.P,U3,1*%
%TO.N,Net-(U3-Pad1)*%
X249656600Y-64630300D03*
D15*
%TO.P,U3,2*%
%TO.N,GND*%
X252196600Y-64630300D03*
%TO.P,U3,3*%
%TO.N,Net-(R3-Pad1)*%
X249656600Y-67170300D03*
%TO.P,U3,4*%
%TO.N,ESP01_03_SDA*%
X252196600Y-67170300D03*
%TO.P,U3,5*%
%TO.N,Net-(U3-Pad5)*%
X249656600Y-69710300D03*
%TO.P,U3,6*%
%TO.N,ESP01_03_SCL*%
X252196600Y-69710300D03*
%TO.P,U3,7*%
%TO.N,ESP01_~{3.3V}_03*%
X249656600Y-72250300D03*
%TO.P,U3,8*%
%TO.N,Net-(U3-Pad8)*%
X252196600Y-72250300D03*
%TD*%
D14*
%TO.P,U4,1*%
%TO.N,Net-(U4-Pad1)*%
X249656600Y-81400650D03*
D15*
%TO.P,U4,2*%
%TO.N,GND*%
X252196600Y-81400650D03*
%TO.P,U4,3*%
%TO.N,Net-(R4-Pad1)*%
X249656600Y-83940650D03*
%TO.P,U4,4*%
%TO.N,ESP01_04_SDA*%
X252196600Y-83940650D03*
%TO.P,U4,5*%
%TO.N,Net-(U4-Pad5)*%
X249656600Y-86480650D03*
%TO.P,U4,6*%
%TO.N,ESP01_04_SCL*%
X252196600Y-86480650D03*
%TO.P,U4,7*%
%TO.N,ESP01_~{3.3V}_04*%
X249656600Y-89020650D03*
%TO.P,U4,8*%
%TO.N,Net-(U4-Pad8)*%
X252196600Y-89020650D03*
%TD*%
D14*
%TO.P,U5,1*%
%TO.N,Net-(U5-Pad1)*%
X249656600Y-98171000D03*
D15*
%TO.P,U5,2*%
%TO.N,GND*%
X252196600Y-98171000D03*
%TO.P,U5,3*%
%TO.N,Net-(R5-Pad1)*%
X249656600Y-100711000D03*
%TO.P,U5,4*%
%TO.N,ESP01_05_SDA*%
X252196600Y-100711000D03*
%TO.P,U5,5*%
%TO.N,Net-(U5-Pad5)*%
X249656600Y-103251000D03*
%TO.P,U5,6*%
%TO.N,ESP01_05_SCL*%
X252196600Y-103251000D03*
%TO.P,U5,7*%
%TO.N,ESP01_~{3.3V}_05*%
X249656600Y-105791000D03*
%TO.P,U5,8*%
%TO.N,Net-(U5-Pad8)*%
X252196600Y-105791000D03*
%TD*%
D16*
%TO.N,*%
X260604000Y-24892000D03*
X170688000Y-24892000D03*
X260604000Y-112268000D03*
X170688000Y-112268000D03*
D17*
%TO.N,GND*%
X259029200Y-72034400D03*
X259029200Y-54406800D03*
X259029200Y-38277800D03*
X259029200Y-88747600D03*
X259029200Y-105181400D03*
%TO.N,ESP01_01_SCL*%
X235229400Y-39547800D03*
%TO.N,ESP01_02_SCL*%
X234137200Y-53771800D03*
%TO.N,ESP01_03_SCL*%
X237490000Y-67995800D03*
%TO.N,ESP01_04_SCL*%
X234543600Y-82245200D03*
%TO.N,ESP01_05_SCL*%
X234721400Y-96469200D03*
%TD*%
D18*
%TO.N,GND*%
X259029200Y-88747600D02*
X259029200Y-99237800D01*
X229666800Y-60375800D02*
X232206800Y-60375800D01*
X252196600Y-98171000D02*
X257962400Y-98171000D01*
X185978800Y-26771600D02*
X185978800Y-24612600D01*
X174802800Y-60375800D02*
X173252799Y-61925801D01*
X250941414Y-62153800D02*
X252196600Y-63408986D01*
X252196600Y-29868286D02*
X252196600Y-31089600D01*
X257695700Y-64630300D02*
X259029200Y-65963800D01*
X241763410Y-111385210D02*
X235458000Y-105079800D01*
X252196600Y-46638636D02*
X251709764Y-46151800D01*
X243535200Y-95529400D02*
X250776314Y-95529400D01*
X173252799Y-33477801D02*
X173252799Y-30302801D01*
X259029200Y-31902400D02*
X259029200Y-35636200D01*
X173252799Y-90373801D02*
X173252799Y-97433799D01*
X259029200Y-54406800D02*
X259029200Y-65963800D01*
X173252799Y-87273799D02*
X174802800Y-88823800D01*
X174802800Y-88823800D02*
X173252799Y-90373801D01*
X257714750Y-47859950D02*
X259029200Y-49174400D01*
X174802800Y-74599800D02*
X229666800Y-74599800D01*
X173252799Y-58825799D02*
X174802800Y-60375800D01*
X258184650Y-81400650D02*
X259029200Y-82245200D01*
X229666800Y-88823800D02*
X236829600Y-88823800D01*
X259029200Y-99237800D02*
X259029200Y-105181400D01*
X252196600Y-63408986D02*
X252196600Y-64630300D01*
X174802800Y-88823800D02*
X229666800Y-88823800D01*
X259029200Y-38277800D02*
X259029200Y-49174400D01*
X246100600Y-28676600D02*
X246075200Y-28702000D01*
X259029200Y-108656470D02*
X256300460Y-111385210D01*
X223324802Y-60375800D02*
X229666800Y-60375800D01*
X173252799Y-76149801D02*
X173252799Y-87273799D01*
X259029200Y-105181400D02*
X259029200Y-108656470D01*
X258216400Y-31089600D02*
X259029200Y-31902400D01*
X175691800Y-27863800D02*
X184886600Y-27863800D01*
X174802800Y-31927800D02*
X173252799Y-33477801D01*
X232206800Y-60375800D02*
X233984800Y-62153800D01*
X257962400Y-98171000D02*
X259029200Y-99237800D01*
X252196600Y-31089600D02*
X257581400Y-31089600D01*
X174802800Y-46151800D02*
X245821200Y-46151800D01*
X252196600Y-80179336D02*
X252196600Y-81400650D01*
X252196600Y-96949686D02*
X252196600Y-98171000D01*
X174802800Y-74599800D02*
X173252799Y-76149801D01*
X173252799Y-97433799D02*
X180898800Y-105079800D01*
X173252799Y-33477801D02*
X173252799Y-44601799D01*
X259029200Y-49174400D02*
X259029200Y-54406800D01*
X180898800Y-105079800D02*
X180898800Y-112191800D01*
X259029200Y-35636200D02*
X259029200Y-38277800D01*
X246100600Y-28676600D02*
X251004914Y-28676600D01*
X235458000Y-105079800D02*
X180898800Y-105079800D01*
X173252799Y-47701801D02*
X173252799Y-58825799D01*
X173252799Y-30302801D02*
X175691800Y-27863800D01*
X259029200Y-82245200D02*
X259029200Y-88747600D01*
X233756200Y-78689200D02*
X250706464Y-78689200D01*
X229666800Y-74599800D02*
X233756200Y-78689200D01*
X250776314Y-95529400D02*
X252196600Y-96949686D01*
X174802800Y-60375800D02*
X223324802Y-60375800D01*
X173252799Y-73049799D02*
X174802800Y-74599800D01*
X251004914Y-28676600D02*
X252196600Y-29868286D01*
X252196600Y-47859950D02*
X257714750Y-47859950D01*
X257581400Y-31089600D02*
X258216400Y-31089600D01*
X246075200Y-28702000D02*
X232892600Y-28702000D01*
X252196600Y-47859950D02*
X252196600Y-46638636D01*
X236829600Y-88823800D02*
X243535200Y-95529400D01*
X251709764Y-46151800D02*
X229666800Y-46151800D01*
X174802800Y-31927800D02*
X229666800Y-31927800D01*
X233984800Y-62153800D02*
X250941414Y-62153800D01*
X259029200Y-72034400D02*
X259029200Y-82245200D01*
X252196600Y-64630300D02*
X257695700Y-64630300D01*
X259029200Y-65963800D02*
X259029200Y-72034400D01*
X173252799Y-61925801D02*
X173252799Y-73049799D01*
X250706464Y-78689200D02*
X252196600Y-80179336D01*
X173252799Y-44601799D02*
X174802800Y-46151800D01*
X252196600Y-81400650D02*
X258184650Y-81400650D01*
X256300460Y-111385210D02*
X241763410Y-111385210D01*
X232892600Y-28702000D02*
X229666800Y-31927800D01*
X174802800Y-46151800D02*
X173252799Y-47701801D01*
X184886600Y-27863800D02*
X185978800Y-26771600D01*
%TO.N,ESP01_01_SCL*%
X237032800Y-41351200D02*
X235229400Y-39547800D01*
X252196600Y-36169600D02*
X254533400Y-38506400D01*
X254533400Y-40843200D02*
X254025400Y-41351200D01*
X254025400Y-41351200D02*
X237032800Y-41351200D01*
X254533400Y-38506400D02*
X254533400Y-40843200D01*
%TO.N,ESP01_01_SDA*%
X255092200Y-42900600D02*
X235559600Y-42900600D01*
X256235200Y-37668200D02*
X256235200Y-41757600D01*
X252196600Y-33629600D02*
X256235200Y-37668200D01*
X235559600Y-42900600D02*
X229666800Y-37007800D01*
X256235200Y-41757600D02*
X255092200Y-42900600D01*
%TO.N,ESP01_02_SCL*%
X238988600Y-58623200D02*
X234137200Y-53771800D01*
X252196600Y-52939950D02*
X255371600Y-56114950D01*
X255371600Y-56114950D02*
X255371600Y-58064400D01*
X255371600Y-58064400D02*
X254812800Y-58623200D01*
X254812800Y-58623200D02*
X238988600Y-58623200D01*
%TO.N,ESP01_02_SDA*%
X252196600Y-50399950D02*
X257124200Y-55327550D01*
X257124200Y-58877200D02*
X255981200Y-60020200D01*
X255981200Y-60020200D02*
X238455200Y-60020200D01*
X257124200Y-55327550D02*
X257124200Y-58877200D01*
X238455200Y-60020200D02*
X229666800Y-51231800D01*
%TO.N,ESP01_03_SCL*%
X254996810Y-75990590D02*
X255981200Y-75006200D01*
X255981200Y-73494900D02*
X252196600Y-69710300D01*
X255981200Y-75006200D02*
X255981200Y-73494900D01*
X245484790Y-75990590D02*
X254996810Y-75990590D01*
X237490000Y-67995800D02*
X245484790Y-75990590D01*
%TO.N,ESP01_03_SDA*%
X252196600Y-67170300D02*
X257251200Y-72224900D01*
X232740200Y-65455800D02*
X229666800Y-65455800D01*
X244475000Y-77190600D02*
X232740200Y-65455800D01*
X257251200Y-75793600D02*
X255854200Y-77190600D01*
X255854200Y-77190600D02*
X244475000Y-77190600D01*
X257251200Y-72224900D02*
X257251200Y-75793600D01*
%TO.N,ESP01_04_SCL*%
X255930400Y-91998800D02*
X255930400Y-90214450D01*
X234543600Y-82245200D02*
X245008400Y-92710000D01*
X245008400Y-92710000D02*
X255219200Y-92710000D01*
X255219200Y-92710000D02*
X255930400Y-91998800D01*
X255930400Y-90214450D02*
X252196600Y-86480650D01*
%TO.N,ESP01_04_SDA*%
X257581400Y-89325450D02*
X257581400Y-92684600D01*
X256133600Y-94132400D02*
X244119400Y-94132400D01*
X257581400Y-92684600D02*
X256133600Y-94132400D01*
X244119400Y-94132400D02*
X229666800Y-79679800D01*
X252196600Y-83940650D02*
X257581400Y-89325450D01*
%TO.N,ESP01_05_SCL*%
X255676400Y-108254800D02*
X255676400Y-106730800D01*
X234721400Y-96469200D02*
X247192800Y-108940600D01*
X254990600Y-108940600D02*
X255676400Y-108254800D01*
X247192800Y-108940600D02*
X254990600Y-108940600D01*
X255676400Y-106730800D02*
X252196600Y-103251000D01*
%TO.N,ESP01_05_SDA*%
X255803400Y-110185200D02*
X257149600Y-108839000D01*
X257149600Y-108839000D02*
X257149600Y-105664000D01*
X245948200Y-110185200D02*
X255803400Y-110185200D01*
X229666800Y-93903800D02*
X245948200Y-110185200D01*
X257149600Y-105664000D02*
X252196600Y-100711000D01*
%TD*%
M02*
