%TF.GenerationSoftware,KiCad,Pcbnew,(6.0.4)*%
%TF.CreationDate,2022-04-03T13:08:36+08:00*%
%TF.ProjectId,Main_Board_Master,4d61696e-5f42-46f6-9172-645f4d617374,rev?*%
%TF.SameCoordinates,Original*%
%TF.FileFunction,Soldermask,Top*%
%TF.FilePolarity,Negative*%
%FSLAX46Y46*%
G04 Gerber Fmt 4.6, Leading zero omitted, Abs format (unit mm)*
G04 Created by KiCad (PCBNEW (6.0.4)) date 2022-04-03 13:08:36*
%MOMM*%
%LPD*%
G01*
G04 APERTURE LIST*
G04 Aperture macros list*
%AMRoundRect*
0 Rectangle with rounded corners*
0 $1 Rounding radius*
0 $2 $3 $4 $5 $6 $7 $8 $9 X,Y pos of 4 corners*
0 Add a 4 corners polygon primitive as box body*
4,1,4,$2,$3,$4,$5,$6,$7,$8,$9,$2,$3,0*
0 Add four circle primitives for the rounded corners*
1,1,$1+$1,$2,$3*
1,1,$1+$1,$4,$5*
1,1,$1+$1,$6,$7*
1,1,$1+$1,$8,$9*
0 Add four rect primitives between the rounded corners*
20,1,$1+$1,$2,$3,$4,$5,0*
20,1,$1+$1,$4,$5,$6,$7,0*
20,1,$1+$1,$6,$7,$8,$9,0*
20,1,$1+$1,$8,$9,$2,$3,0*%
G04 Aperture macros list end*
%ADD10R,1.700000X1.700000*%
%ADD11O,1.700000X1.700000*%
%ADD12R,3.000000X3.000000*%
%ADD13C,3.000000*%
%ADD14RoundRect,0.250000X-0.337500X-0.475000X0.337500X-0.475000X0.337500X0.475000X-0.337500X0.475000X0*%
%ADD15RoundRect,0.250000X0.337500X0.475000X-0.337500X0.475000X-0.337500X-0.475000X0.337500X-0.475000X0*%
%ADD16RoundRect,0.249999X0.350001X0.450001X-0.350001X0.450001X-0.350001X-0.450001X0.350001X-0.450001X0*%
%ADD17R,1.727200X1.727200*%
%ADD18O,1.727200X1.727200*%
%ADD19R,2.000000X1.500000*%
%ADD20R,2.000000X3.800000*%
G04 APERTURE END LIST*
D10*
%TO.C,J1*%
X229666800Y-31927800D03*
D11*
X229666800Y-34467800D03*
X229666800Y-37007800D03*
X229666800Y-39547800D03*
%TD*%
D10*
%TO.C,J2*%
X223570800Y-31927800D03*
D11*
X223570800Y-34467800D03*
X223570800Y-37007800D03*
X223570800Y-39547800D03*
%TD*%
D10*
%TO.C,J3*%
X217474800Y-31927800D03*
D11*
X217474800Y-34467800D03*
X217474800Y-37007800D03*
X217474800Y-39547800D03*
%TD*%
D10*
%TO.C,J4*%
X211378800Y-31927800D03*
D11*
X211378800Y-34467800D03*
X211378800Y-37007800D03*
X211378800Y-39547800D03*
%TD*%
D10*
%TO.C,J5*%
X205282800Y-31927800D03*
D11*
X205282800Y-34467800D03*
X205282800Y-37007800D03*
X205282800Y-39547800D03*
%TD*%
D10*
%TO.C,J6*%
X199186800Y-31927800D03*
D11*
X199186800Y-34467800D03*
X199186800Y-37007800D03*
X199186800Y-39547800D03*
%TD*%
D10*
%TO.C,J7*%
X193090800Y-31927800D03*
D11*
X193090800Y-34467800D03*
X193090800Y-37007800D03*
X193090800Y-39547800D03*
%TD*%
D10*
%TO.C,J8*%
X186994800Y-31927800D03*
D11*
X186994800Y-34467800D03*
X186994800Y-37007800D03*
X186994800Y-39547800D03*
%TD*%
D10*
%TO.C,J9*%
X180898800Y-31927800D03*
D11*
X180898800Y-34467800D03*
X180898800Y-37007800D03*
X180898800Y-39547800D03*
%TD*%
D10*
%TO.C,J10*%
X174802800Y-31927800D03*
D11*
X174802800Y-34467800D03*
X174802800Y-37007800D03*
X174802800Y-39547800D03*
%TD*%
D10*
%TO.C,J12*%
X229666800Y-46151800D03*
D11*
X229666800Y-48691800D03*
X229666800Y-51231800D03*
X229666800Y-53771800D03*
%TD*%
D10*
%TO.C,J13*%
X223570800Y-46151800D03*
D11*
X223570800Y-48691800D03*
X223570800Y-51231800D03*
X223570800Y-53771800D03*
%TD*%
D10*
%TO.C,J14*%
X217474800Y-46151800D03*
D11*
X217474800Y-48691800D03*
X217474800Y-51231800D03*
X217474800Y-53771800D03*
%TD*%
D10*
%TO.C,J15*%
X211378800Y-46151800D03*
D11*
X211378800Y-48691800D03*
X211378800Y-51231800D03*
X211378800Y-53771800D03*
%TD*%
D10*
%TO.C,J16*%
X205282800Y-46151800D03*
D11*
X205282800Y-48691800D03*
X205282800Y-51231800D03*
X205282800Y-53771800D03*
%TD*%
D10*
%TO.C,J17*%
X199186800Y-46151800D03*
D11*
X199186800Y-48691800D03*
X199186800Y-51231800D03*
X199186800Y-53771800D03*
%TD*%
D10*
%TO.C,J18*%
X193090800Y-46151800D03*
D11*
X193090800Y-48691800D03*
X193090800Y-51231800D03*
X193090800Y-53771800D03*
%TD*%
D10*
%TO.C,J19*%
X186994800Y-46151800D03*
D11*
X186994800Y-48691800D03*
X186994800Y-51231800D03*
X186994800Y-53771800D03*
%TD*%
D10*
%TO.C,J20*%
X180898800Y-46151800D03*
D11*
X180898800Y-48691800D03*
X180898800Y-51231800D03*
X180898800Y-53771800D03*
%TD*%
D10*
%TO.C,J21*%
X174802800Y-46151800D03*
D11*
X174802800Y-48691800D03*
X174802800Y-51231800D03*
X174802800Y-53771800D03*
%TD*%
D10*
%TO.C,J23*%
X229666800Y-60375800D03*
D11*
X229666800Y-62915800D03*
X229666800Y-65455800D03*
X229666800Y-67995800D03*
%TD*%
D10*
%TO.C,J24*%
X223570800Y-60375800D03*
D11*
X223570800Y-62915800D03*
X223570800Y-65455800D03*
X223570800Y-67995800D03*
%TD*%
D10*
%TO.C,J25*%
X217474800Y-60375800D03*
D11*
X217474800Y-62915800D03*
X217474800Y-65455800D03*
X217474800Y-67995800D03*
%TD*%
D10*
%TO.C,J26*%
X211378800Y-60375800D03*
D11*
X211378800Y-62915800D03*
X211378800Y-65455800D03*
X211378800Y-67995800D03*
%TD*%
D10*
%TO.C,J27*%
X205282800Y-60375800D03*
D11*
X205282800Y-62915800D03*
X205282800Y-65455800D03*
X205282800Y-67995800D03*
%TD*%
D10*
%TO.C,J28*%
X199186800Y-60375800D03*
D11*
X199186800Y-62915800D03*
X199186800Y-65455800D03*
X199186800Y-67995800D03*
%TD*%
D10*
%TO.C,J29*%
X193090800Y-60375800D03*
D11*
X193090800Y-62915800D03*
X193090800Y-65455800D03*
X193090800Y-67995800D03*
%TD*%
D10*
%TO.C,J30*%
X186994800Y-60375800D03*
D11*
X186994800Y-62915800D03*
X186994800Y-65455800D03*
X186994800Y-67995800D03*
%TD*%
D10*
%TO.C,J31*%
X180898800Y-60375800D03*
D11*
X180898800Y-62915800D03*
X180898800Y-65455800D03*
X180898800Y-67995800D03*
%TD*%
D10*
%TO.C,J32*%
X174802800Y-60375800D03*
D11*
X174802800Y-62915800D03*
X174802800Y-65455800D03*
X174802800Y-67995800D03*
%TD*%
D10*
%TO.C,J34*%
X229666800Y-74599800D03*
D11*
X229666800Y-77139800D03*
X229666800Y-79679800D03*
X229666800Y-82219800D03*
%TD*%
D10*
%TO.C,J35*%
X223570800Y-74599800D03*
D11*
X223570800Y-77139800D03*
X223570800Y-79679800D03*
X223570800Y-82219800D03*
%TD*%
D10*
%TO.C,J36*%
X217474800Y-74599800D03*
D11*
X217474800Y-77139800D03*
X217474800Y-79679800D03*
X217474800Y-82219800D03*
%TD*%
D10*
%TO.C,J37*%
X211378800Y-74599800D03*
D11*
X211378800Y-77139800D03*
X211378800Y-79679800D03*
X211378800Y-82219800D03*
%TD*%
D10*
%TO.C,J38*%
X205282800Y-74599800D03*
D11*
X205282800Y-77139800D03*
X205282800Y-79679800D03*
X205282800Y-82219800D03*
%TD*%
D10*
%TO.C,J39*%
X199186800Y-74599800D03*
D11*
X199186800Y-77139800D03*
X199186800Y-79679800D03*
X199186800Y-82219800D03*
%TD*%
D10*
%TO.C,J40*%
X193090800Y-74599800D03*
D11*
X193090800Y-77139800D03*
X193090800Y-79679800D03*
X193090800Y-82219800D03*
%TD*%
D10*
%TO.C,J41*%
X186994800Y-74599800D03*
D11*
X186994800Y-77139800D03*
X186994800Y-79679800D03*
X186994800Y-82219800D03*
%TD*%
D10*
%TO.C,J42*%
X180898800Y-74599800D03*
D11*
X180898800Y-77139800D03*
X180898800Y-79679800D03*
X180898800Y-82219800D03*
%TD*%
D10*
%TO.C,J43*%
X174802800Y-74599800D03*
D11*
X174802800Y-77139800D03*
X174802800Y-79679800D03*
X174802800Y-82219800D03*
%TD*%
D10*
%TO.C,J45*%
X229666800Y-88823800D03*
D11*
X229666800Y-91363800D03*
X229666800Y-93903800D03*
X229666800Y-96443800D03*
%TD*%
D10*
%TO.C,J46*%
X223570800Y-88823800D03*
D11*
X223570800Y-91363800D03*
X223570800Y-93903800D03*
X223570800Y-96443800D03*
%TD*%
D10*
%TO.C,J47*%
X217474800Y-88823800D03*
D11*
X217474800Y-91363800D03*
X217474800Y-93903800D03*
X217474800Y-96443800D03*
%TD*%
D10*
%TO.C,J48*%
X211378800Y-88823800D03*
D11*
X211378800Y-91363800D03*
X211378800Y-93903800D03*
X211378800Y-96443800D03*
%TD*%
D10*
%TO.C,J49*%
X205282800Y-88823800D03*
D11*
X205282800Y-91363800D03*
X205282800Y-93903800D03*
X205282800Y-96443800D03*
%TD*%
D10*
%TO.C,J50*%
X199186800Y-88823800D03*
D11*
X199186800Y-91363800D03*
X199186800Y-93903800D03*
X199186800Y-96443800D03*
%TD*%
D10*
%TO.C,J51*%
X193090800Y-88823800D03*
D11*
X193090800Y-91363800D03*
X193090800Y-93903800D03*
X193090800Y-96443800D03*
%TD*%
D10*
%TO.C,J52*%
X186994800Y-88823800D03*
D11*
X186994800Y-91363800D03*
X186994800Y-93903800D03*
X186994800Y-96443800D03*
%TD*%
D10*
%TO.C,J53*%
X180898800Y-88823800D03*
D11*
X180898800Y-91363800D03*
X180898800Y-93903800D03*
X180898800Y-96443800D03*
%TD*%
D10*
%TO.C,J54*%
X174802800Y-88823800D03*
D11*
X174802800Y-91363800D03*
X174802800Y-93903800D03*
X174802800Y-96443800D03*
%TD*%
D12*
%TO.C,J56*%
X180898800Y-112191800D03*
D13*
X185978800Y-112191800D03*
%TD*%
D14*
%TO.C,C1*%
X256921000Y-41122600D03*
X258996000Y-41122600D03*
%TD*%
%TO.C,C2*%
X256924900Y-39116000D03*
X258999900Y-39116000D03*
%TD*%
D15*
%TO.C,C3*%
X262809900Y-39116000D03*
X260734900Y-39116000D03*
%TD*%
%TO.C,C4*%
X262809900Y-41122600D03*
X260734900Y-41122600D03*
%TD*%
D14*
%TO.C,C5*%
X256950300Y-57175400D03*
X259025300Y-57175400D03*
%TD*%
%TO.C,C6*%
X256950300Y-55168800D03*
X259025300Y-55168800D03*
%TD*%
D15*
%TO.C,C7*%
X262809900Y-55168800D03*
X260734900Y-55168800D03*
%TD*%
%TO.C,C8*%
X262809900Y-57175400D03*
X260734900Y-57175400D03*
%TD*%
D14*
%TO.C,C9*%
X256923400Y-74792900D03*
X258998400Y-74792900D03*
%TD*%
%TO.C,C10*%
X256924900Y-72796400D03*
X258999900Y-72796400D03*
%TD*%
D15*
%TO.C,C11*%
X262809900Y-72796400D03*
X260734900Y-72796400D03*
%TD*%
%TO.C,C12*%
X262809900Y-74803000D03*
X260734900Y-74803000D03*
%TD*%
D14*
%TO.C,C13*%
X256924900Y-91440000D03*
X258999900Y-91440000D03*
%TD*%
%TO.C,C14*%
X256924900Y-89433400D03*
X258999900Y-89433400D03*
%TD*%
D15*
%TO.C,C15*%
X262809900Y-89433400D03*
X260734900Y-89433400D03*
%TD*%
%TO.C,C16*%
X262809900Y-91440000D03*
X260734900Y-91440000D03*
%TD*%
D14*
%TO.C,C17*%
X256924900Y-108026200D03*
X258999900Y-108026200D03*
%TD*%
%TO.C,C18*%
X256931600Y-106020500D03*
X259006600Y-106020500D03*
%TD*%
D15*
%TO.C,C19*%
X262809900Y-106019600D03*
X260734900Y-106019600D03*
%TD*%
%TO.C,C20*%
X262809900Y-108026200D03*
X260734900Y-108026200D03*
%TD*%
D12*
%TO.C,J57*%
X185978800Y-24612600D03*
D13*
X180898800Y-24612600D03*
%TD*%
D16*
%TO.C,R1*%
X246440200Y-33629600D03*
X244440200Y-33629600D03*
%TD*%
%TO.C,R2*%
X246795800Y-50393600D03*
X244795800Y-50393600D03*
%TD*%
%TO.C,R3*%
X246541800Y-67208400D03*
X244541800Y-67208400D03*
%TD*%
%TO.C,R4*%
X246694200Y-83947000D03*
X244694200Y-83947000D03*
%TD*%
%TO.C,R5*%
X246694200Y-100711000D03*
X244694200Y-100711000D03*
%TD*%
D17*
%TO.C,U1*%
X249656600Y-31089600D03*
D18*
X252196600Y-31089600D03*
X249656600Y-33629600D03*
X252196600Y-33629600D03*
X249656600Y-36169600D03*
X252196600Y-36169600D03*
X249656600Y-38709600D03*
X252196600Y-38709600D03*
%TD*%
D17*
%TO.C,U2*%
X249656600Y-47859950D03*
D18*
X252196600Y-47859950D03*
X249656600Y-50399950D03*
X252196600Y-50399950D03*
X249656600Y-52939950D03*
X252196600Y-52939950D03*
X249656600Y-55479950D03*
X252196600Y-55479950D03*
%TD*%
D17*
%TO.C,U3*%
X249656600Y-64630300D03*
D18*
X252196600Y-64630300D03*
X249656600Y-67170300D03*
X252196600Y-67170300D03*
X249656600Y-69710300D03*
X252196600Y-69710300D03*
X249656600Y-72250300D03*
X252196600Y-72250300D03*
%TD*%
D17*
%TO.C,U4*%
X249656600Y-81400650D03*
D18*
X252196600Y-81400650D03*
X249656600Y-83940650D03*
X252196600Y-83940650D03*
X249656600Y-86480650D03*
X252196600Y-86480650D03*
X249656600Y-89020650D03*
X252196600Y-89020650D03*
%TD*%
D17*
%TO.C,U5*%
X249656600Y-98171000D03*
D18*
X252196600Y-98171000D03*
X249656600Y-100711000D03*
X252196600Y-100711000D03*
X249656600Y-103251000D03*
X252196600Y-103251000D03*
X249656600Y-105791000D03*
X252196600Y-105791000D03*
%TD*%
D19*
%TO.C,U6*%
X255472800Y-32167800D03*
D20*
X261772800Y-34467800D03*
D19*
X255472800Y-34467800D03*
X255472800Y-36767800D03*
%TD*%
%TO.C,U7*%
X255523600Y-48220600D03*
D20*
X261823600Y-50520600D03*
D19*
X255523600Y-50520600D03*
X255523600Y-52820600D03*
%TD*%
%TO.C,U8*%
X255523600Y-65848200D03*
X255523600Y-68148200D03*
D20*
X261823600Y-68148200D03*
D19*
X255523600Y-70448200D03*
%TD*%
%TO.C,U9*%
X255498200Y-82485200D03*
D20*
X261798200Y-84785200D03*
D19*
X255498200Y-84785200D03*
X255498200Y-87085200D03*
%TD*%
%TO.C,U10*%
X255422000Y-99096800D03*
D20*
X261722000Y-101396800D03*
D19*
X255422000Y-101396800D03*
X255422000Y-103696800D03*
%TD*%
M02*
