%TF.GenerationSoftware,KiCad,Pcbnew,(6.0.4)*%
%TF.CreationDate,2022-04-03T13:08:36+08:00*%
%TF.ProjectId,Main_Board_Master,4d61696e-5f42-46f6-9172-645f4d617374,rev?*%
%TF.SameCoordinates,Original*%
%TF.FileFunction,Paste,Top*%
%TF.FilePolarity,Positive*%
%FSLAX46Y46*%
G04 Gerber Fmt 4.6, Leading zero omitted, Abs format (unit mm)*
G04 Created by KiCad (PCBNEW (6.0.4)) date 2022-04-03 13:08:36*
%MOMM*%
%LPD*%
G01*
G04 APERTURE LIST*
G04 Aperture macros list*
%AMRoundRect*
0 Rectangle with rounded corners*
0 $1 Rounding radius*
0 $2 $3 $4 $5 $6 $7 $8 $9 X,Y pos of 4 corners*
0 Add a 4 corners polygon primitive as box body*
4,1,4,$2,$3,$4,$5,$6,$7,$8,$9,$2,$3,0*
0 Add four circle primitives for the rounded corners*
1,1,$1+$1,$2,$3*
1,1,$1+$1,$4,$5*
1,1,$1+$1,$6,$7*
1,1,$1+$1,$8,$9*
0 Add four rect primitives between the rounded corners*
20,1,$1+$1,$2,$3,$4,$5,0*
20,1,$1+$1,$4,$5,$6,$7,0*
20,1,$1+$1,$6,$7,$8,$9,0*
20,1,$1+$1,$8,$9,$2,$3,0*%
G04 Aperture macros list end*
%ADD10RoundRect,0.250000X-0.337500X-0.475000X0.337500X-0.475000X0.337500X0.475000X-0.337500X0.475000X0*%
%ADD11RoundRect,0.250000X0.337500X0.475000X-0.337500X0.475000X-0.337500X-0.475000X0.337500X-0.475000X0*%
%ADD12RoundRect,0.249999X0.350001X0.450001X-0.350001X0.450001X-0.350001X-0.450001X0.350001X-0.450001X0*%
%ADD13R,2.000000X1.500000*%
%ADD14R,2.000000X3.800000*%
G04 APERTURE END LIST*
D10*
%TO.C,C1*%
X256921000Y-41122600D03*
X258996000Y-41122600D03*
%TD*%
%TO.C,C2*%
X256924900Y-39116000D03*
X258999900Y-39116000D03*
%TD*%
D11*
%TO.C,C3*%
X262809900Y-39116000D03*
X260734900Y-39116000D03*
%TD*%
%TO.C,C4*%
X262809900Y-41122600D03*
X260734900Y-41122600D03*
%TD*%
D10*
%TO.C,C5*%
X256950300Y-57175400D03*
X259025300Y-57175400D03*
%TD*%
%TO.C,C6*%
X256950300Y-55168800D03*
X259025300Y-55168800D03*
%TD*%
D11*
%TO.C,C7*%
X262809900Y-55168800D03*
X260734900Y-55168800D03*
%TD*%
%TO.C,C8*%
X262809900Y-57175400D03*
X260734900Y-57175400D03*
%TD*%
D10*
%TO.C,C9*%
X256923400Y-74792900D03*
X258998400Y-74792900D03*
%TD*%
%TO.C,C10*%
X256924900Y-72796400D03*
X258999900Y-72796400D03*
%TD*%
D11*
%TO.C,C11*%
X262809900Y-72796400D03*
X260734900Y-72796400D03*
%TD*%
%TO.C,C12*%
X262809900Y-74803000D03*
X260734900Y-74803000D03*
%TD*%
D10*
%TO.C,C13*%
X256924900Y-91440000D03*
X258999900Y-91440000D03*
%TD*%
%TO.C,C14*%
X256924900Y-89433400D03*
X258999900Y-89433400D03*
%TD*%
D11*
%TO.C,C15*%
X262809900Y-89433400D03*
X260734900Y-89433400D03*
%TD*%
%TO.C,C16*%
X262809900Y-91440000D03*
X260734900Y-91440000D03*
%TD*%
D10*
%TO.C,C17*%
X256924900Y-108026200D03*
X258999900Y-108026200D03*
%TD*%
%TO.C,C18*%
X256931600Y-106020500D03*
X259006600Y-106020500D03*
%TD*%
D11*
%TO.C,C19*%
X262809900Y-106019600D03*
X260734900Y-106019600D03*
%TD*%
%TO.C,C20*%
X262809900Y-108026200D03*
X260734900Y-108026200D03*
%TD*%
D12*
%TO.C,R1*%
X246440200Y-33629600D03*
X244440200Y-33629600D03*
%TD*%
%TO.C,R2*%
X246795800Y-50393600D03*
X244795800Y-50393600D03*
%TD*%
%TO.C,R3*%
X246541800Y-67208400D03*
X244541800Y-67208400D03*
%TD*%
%TO.C,R4*%
X246694200Y-83947000D03*
X244694200Y-83947000D03*
%TD*%
%TO.C,R5*%
X246694200Y-100711000D03*
X244694200Y-100711000D03*
%TD*%
D13*
%TO.C,U6*%
X255472800Y-32167800D03*
D14*
X261772800Y-34467800D03*
D13*
X255472800Y-34467800D03*
X255472800Y-36767800D03*
%TD*%
%TO.C,U7*%
X255523600Y-48220600D03*
D14*
X261823600Y-50520600D03*
D13*
X255523600Y-50520600D03*
X255523600Y-52820600D03*
%TD*%
%TO.C,U8*%
X255523600Y-65848200D03*
X255523600Y-68148200D03*
D14*
X261823600Y-68148200D03*
D13*
X255523600Y-70448200D03*
%TD*%
%TO.C,U9*%
X255498200Y-82485200D03*
D14*
X261798200Y-84785200D03*
D13*
X255498200Y-84785200D03*
X255498200Y-87085200D03*
%TD*%
%TO.C,U10*%
X255422000Y-99096800D03*
D14*
X261722000Y-101396800D03*
D13*
X255422000Y-101396800D03*
X255422000Y-103696800D03*
%TD*%
M02*
